<svg xmlns="http://www.w3.org/2000/svg" viewBox="0 0 240.31 288"><defs><style>.cls-1{fill:#a27854;}</style></defs><title>Asset 5@10x</title><g id="Layer_2" data-name="Layer 2"><g id="Layer_3" data-name="Layer 3"><path class="cls-1" d="M219.64,288c-119.93,0-192-39.9-214.33-118.58C-14.87,98.15,24.14,25.88,94.13,4.88a113.94,113.94,0,0,1,142,76.42A98.6,98.6,0,0,1,170,204.09,85.71,85.71,0,0,1,63.25,146.64a75,75,0,0,1,50.2-93.26A18.68,18.68,0,0,1,124.2,89.17,37.59,37.59,0,0,0,99,135.91a48.34,48.34,0,0,0,60.2,32.39A61.21,61.21,0,0,0,200.3,92.05a76.59,76.59,0,0,0-95.42-51.38C54.64,55.73,26.7,107.82,41.27,159.24c17.42,61.5,75.76,91.39,178.37,91.39"/></g></g></svg>