<svg xmlns="http://www.w3.org/2000/svg" viewBox="0 0 23.127 15">
  <defs>
    <style>
      .cls-1 {
        fill: #fff;
      }
    </style>
  </defs>
  <g id="_001-google-plus" data-name="001-google-plus" transform="translate(0 -55.347)">
    <path id="XMLID_511_" class="cls-1" d="M225.221,111.6h-1.453v-1.453a.551.551,0,0,0-.551-.551h-1.962a.551.551,0,0,0-.551.551V111.6h-1.453a.551.551,0,0,0-.551.551v1.962a.551.551,0,0,0,.551.551H220.7v1.453a.551.551,0,0,0,.551.551h1.962a.551.551,0,0,0,.551-.551v-1.453h1.453a.551.551,0,0,0,.551-.551v-1.962A.551.551,0,0,0,225.221,111.6Z" transform="translate(-202.644 -50.27)"/>
    <path id="XMLID_512_" class="cls-1" d="M7.481,58.931a3.5,3.5,0,0,1,1.856.52l.625.428a.551.551,0,0,0,.7-.063l1.823-1.806a.551.551,0,0,0-.076-.845l-1.059-.727a.552.552,0,0,0-.068-.04l-1.026-.507-.042-.019a7.508,7.508,0,0,0-2.769-.526,7.527,7.527,0,0,0-5.289,12.8,7.678,7.678,0,0,0,5.421,2.2A7.157,7.157,0,0,0,12.8,68.184a7.076,7.076,0,0,0,1.815-4.206c0-.016,0-.032,0-.047l.019-1.494a.54.54,0,0,0-.007-.092l-.08-.51a.551.551,0,0,0-.544-.465H7.646a.551.551,0,0,0-.551.551v2.2a.551.551,0,0,0,.551.551H10.89a3.861,3.861,0,0,1-.679.99,3.588,3.588,0,0,1-2.644,1.1,3.9,3.9,0,0,1-2.775-1.135,4.08,4.08,0,0,1,.036-5.6A3.8,3.8,0,0,1,7.481,58.931Z" transform="translate(0)"/>
  </g>
</svg>
