<svg xmlns="http://www.w3.org/2000/svg" viewBox="0 0 7.577 15">
  <defs>
    <style>
      .cls-1 {
        fill: #fff;
      }
    </style>
  </defs>
  <g id="_002-facebook" data-name="002-facebook" transform="translate(-76.703)">
    <path id="XMLID_835_" class="cls-1" d="M76.945,7.989h1.644v6.769a.242.242,0,0,0,.242.242h2.788a.242.242,0,0,0,.242-.242V8.021h1.89a.242.242,0,0,0,.24-.214l.287-2.492a.242.242,0,0,0-.24-.27H81.861V3.483c0-.471.254-.71.754-.71h1.424a.242.242,0,0,0,.242-.242V.244A.242.242,0,0,0,84.038,0H82.076l-.09,0a3.759,3.759,0,0,0-2.458.927,2.578,2.578,0,0,0-.857,2.292V5.045H76.945a.242.242,0,0,0-.242.242v2.46A.242.242,0,0,0,76.945,7.989Z"/>
  </g>
</svg>
