<svg xmlns="http://www.w3.org/2000/svg" viewBox="0 0 13.556 15">
  <defs>
    <style>
      .share {
        fill: #fff;
      }
    </style>
  </defs>
  <g id="share-symbol" transform="translate(-25.272)">
    <path id="Path_56" data-name="Path 56" class="share" d="M36.568,10.6a2.184,2.184,0,0,0-1.474.578L29.723,8.057a2.406,2.406,0,0,0,.069-.528A2.45,2.45,0,0,0,29.723,7l5.31-3.094a2.253,2.253,0,1,0-.724-1.65,2.43,2.43,0,0,0,.069.528l-5.31,3.1a2.258,2.258,0,1,0,0,3.3l5.361,3.131A2.2,2.2,0,1,0,36.568,10.6Z"/>
  </g>
</svg>
