<svg xmlns="http://www.w3.org/2000/svg" viewBox="0 0 55.644 44.571">
  <defs>
    <style>
      .cls-1 {
        fill: #bf9b73;
      }
    </style>
  </defs>
  <g id="_002-alarm-clock" data-name="002-alarm-clock" transform="translate(0 0.001)">
    <path id="Path_555" data-name="Path 555" class="cls-1" d="M217.576,129.583v-5.029h-3.26v5.029a4.884,4.884,0,1,0,6.233,6.233h5.029v-3.26h-5.029A4.907,4.907,0,0,0,217.576,129.583Zm-1.63,6.227a1.624,1.624,0,1,1,1.623-1.624A1.625,1.625,0,0,1,215.946,135.81Zm0,0" transform="translate(-188.124 -111.019)"/>
    <path id="Path_556" data-name="Path 556" class="cls-1" d="M102.5,2.6l-.765-.642A8.379,8.379,0,0,0,89.948,2.985L88.9,4.231a19.484,19.484,0,0,0-8.624,0L79.234,2.985A8.379,8.379,0,0,0,67.442,1.954l-.765.642a8.379,8.379,0,0,0-1.032,11.791l1.047,1.247A19.405,19.405,0,0,0,73.507,39.1L71.293,42.94l2.824,1.63,2.211-3.831a19.4,19.4,0,0,0,16.525,0l2.211,3.831,2.824-1.63L95.674,39.1a19.4,19.4,0,0,0,6.815-23.47l1.047-1.247A8.379,8.379,0,0,0,102.5,2.6Zm-34.362,9.7a5.115,5.115,0,0,1,.63-7.2l.765-.642a5.115,5.115,0,0,1,7.2.63l.2.24a19.538,19.538,0,0,0-8.589,7.215ZM84.591,39.327A16.159,16.159,0,1,1,100.75,23.168,16.178,16.178,0,0,1,84.591,39.327ZM92.244,5.321l.2-.24a5.116,5.116,0,0,1,7.2-.63l.765.642a5.115,5.115,0,0,1,.63,7.2l-.205.245A19.537,19.537,0,0,0,92.244,5.321Zm0,0" transform="translate(-56.769 0)"/>
    <path id="Path_557" data-name="Path 557" class="cls-1" d="M471.5,124.52l-3.063,1.116a24.683,24.683,0,0,1,0,16.806l3.063,1.116a27.94,27.94,0,0,0,0-19.037Zm0,0" transform="translate(-417.524 -110.987)"/>
    <path id="Path_558" data-name="Path 558" class="cls-1" d="M1.671,124.52a27.94,27.94,0,0,0,0,19.037l3.063-1.116a24.682,24.682,0,0,1,0-16.806Zm0,0" transform="translate(0 -110.987)"/>
  </g>
</svg>
