<svg xmlns="http://www.w3.org/2000/svg" viewBox="0 0 392.779 21.229">
  <defs>
    <style>
      .cls-1 {
        opacity: 0.3;
      }

      .cls-2 {
        fill: #6b8181;
      }
    </style>
  </defs>
  <g id="Group_82" data-name="Group 82" class="cls-1" transform="translate(-864.305 3079.765) rotate(-90)">
    <path id="Path_143" data-name="Path 143" class="cls-2" d="M444.273,739.671c.838-21.4.358-42.885.369-64.293q0-41.89.056-83.768c0-9.927.145-19.855-.235-29.782,0-.7-1.442-1.409-1.476-.458-.839,21.409-.246,42.918-.224,64.338q0,41.912.1,83.846c0,9.927-.067,19.877.313,29.793,0,.525,1.118,1.051,1.118.347Z" transform="translate(2625.926 508.255)"/>
    <path id="Path_144" data-name="Path 144" class="cls-2" d="M444.028,693.313a16.244,16.244,0,0,0-7.937,7.267c-.827,1.576-1.845,4.125-.771,5.825,3.488,5.456,10.218-7.211,10.352-9.816,0-.559-1.118-1.532-1.52-.85-1.207,2.113-1.789,4.4-3.242,6.417-.794,1.118-4.885,5.444-3.9,1.52,1.118-4.36,4.673-6.775,7.893-9.48.47-.391-.481-1.051-.872-.883Z" transform="translate(2625.019 523.87)"/>
    <path id="Path_145" data-name="Path 145" class="cls-2" d="M442.76,693.639a28.955,28.955,0,0,0,4.74,10.52c1.051,1.509,4.058,4.17,5.769,1.878s-1.219-5.9-2.549-7.423c-1.912-2.236-4.327-4.729-7.289-5.288-.85-.156-.458,1.006,0,1.241a18.689,18.689,0,0,1,4.472,3.354c1.2,1.118,4.215,3.924,3.767,5.813-.626,2.661-3.041-.615-3.443-1.252-.57-.883-1.118-1.789-1.632-2.717a58.848,58.848,0,0,1-2.773-6.193c-.19-.447-1.118-.637-1.017.056Z" transform="translate(2625.952 523.856)"/>
    <path id="Path_146" data-name="Path 146" class="cls-2" d="M443.935,706a14.288,14.288,0,0,0-6.775,7.725c-.637,1.733-1.777,5.59.514,6.708,4.237,2.079,7.68-10.744,7.524-13,0-.637-1.118-1.409-1.5-.637-.984,1.889-1.3,4.271-2.046,6.283-.425,1.118-1.5,4.818-2.806,5.243-1.7.559.716-5.59,1.174-6.328,1.241-2.035,3.13-3.466,4.472-5.366.235-.313-.291-.738-.593-.593Z" transform="translate(2625.191 525.369)"/>
    <path id="Path_147" data-name="Path 147" class="cls-2" d="M442.29,706.8a47.311,47.311,0,0,0,2.739,6.451c.984,1.9,1.99,4.215,3.611,5.679,1.9,1.733,5.523,1.666,5.21-1.632-.246-2.627-2.907-4.964-4.584-6.708s-3.734-4.081-6.417-4.472c-.861-.112-.447.984,0,1.219a26.317,26.317,0,0,1,7.826,7.222c.581.716,1.755,2.236,1.185,3.141l-1.688.537a2.549,2.549,0,0,1-1.118-1.118,14.661,14.661,0,0,1-1.252-1.934,85.328,85.328,0,0,1-4.338-8.485c-.224-.492-1.431-.716-1.118.067Z" transform="translate(2625.896 525.383)"/>
    <path id="Path_148" data-name="Path 148" class="cls-2" d="M443.641,720.688a43.1,43.1,0,0,1-3.935,4.4c-.492.414.313,1.241.715,1.33a6.529,6.529,0,0,1,4.259,2.873c.257.4,1.431,1.2,1.655.324a8.944,8.944,0,0,1,2.65-4.472c.447-.425-.2-1.118-.548-1.364a19.82,19.82,0,0,1-4.058-3.164c-.425-.414-1.263-.145-.894.5a10.485,10.485,0,0,0,4.472,4.081l-.559-1.364a9.682,9.682,0,0,0-2.806,4.83l1.643.324a8.876,8.876,0,0,0-6.037-4.1l.939,1.375a10.52,10.52,0,0,0,3.354-5c.089-.391-.537-.973-.872-.593Z" transform="translate(2625.573 527.07)"/>
    <path id="Path_149" data-name="Path 149" class="cls-2" d="M442.052,385.918c-.838,21.386-.358,42.885-.369,64.282V533.98c0,9.927-.145,19.855.235,29.771,0,.7,1.442,1.409,1.476.458.838-21.4.246-42.918.224-64.327q0-41.923-.089-83.846c0-9.927.056-19.877-.313-29.8,0-.514-1.118-1.04-1.118-.335Z" transform="translate(2625.81 487.572)"/>
    <path id="Path_150" data-name="Path 150" class="cls-2" d="M443.588,414.057c-3.209-2.46-6.864-4.986-7.759-9.223-.246-1.118-.593-2.728,1.241-2.057,1.051.38,1.968,1.733,2.616,2.594,1.543,2.057,2.236,4.371,3.354,6.629.224.47,1.588,1.062,1.532.112-.212-3.466-2.851-7.367-5.366-9.67-1.118-1.062-3.812-2.884-5.076-.995s.313,4.8,1.219,6.35a17.664,17.664,0,0,0,7.826,7.043c.626.28.973-.369.436-.783Z" transform="translate(2624.878 489.35)"/>
    <path id="Path_151" data-name="Path 151" class="cls-2" d="M442.7,414.764a73.368,73.368,0,0,1,3.354-7.021c.425-.7,3.7-6.1,4.472-3.946.592,1.71-2.527,4.74-3.566,5.78a23.05,23.05,0,0,1-4.986,3.969c-.727.4.313,1.375.85,1.286,2.985-.5,5.59-3.287,7.4-5.59,1.353-1.7,3.432-4.874,1.643-7-4.55-5.4-9.771,9.559-10.207,11.906-.1.514.783,1.185,1.062.581Z" transform="translate(2625.821 489.403)"/>
    <path id="Path_152" data-name="Path 152" class="cls-2" d="M443.354,401.808c-1.554-1.833-3.354-3.287-4.639-5.389-.391-.66-3.03-7.267-.66-6.506,1.118.369,2.236,4.148,2.616,5.12.738,2.035,1.118,4.237,1.979,6.216.224.514,1.353.939,1.42.112.2-2.314-3.432-15.238-7.725-13.605-2.314.872-.615,5.59,0,7.021a15.842,15.842,0,0,0,6.641,7.479c.347.19.637-.134.38-.447Z" transform="translate(2625.056 487.815)"/>
    <path id="Path_153" data-name="Path 153" class="cls-2" d="M442.389,401.638a84.376,84.376,0,0,1,4.718-8.944,12.3,12.3,0,0,1,1.274-1.845l.906-.749c.648-.481,1.017-.324,1.118.47.592,1.118-.279,1.923-.939,2.75a31.191,31.191,0,0,1-8.038,7.479c-.716.436.313,1.319.85,1.263,2.616-.3,4.528-2.515,6.227-4.338s4.472-4.282,4.259-6.987-3.354-3.354-5.31-1.822c-1.375,1.118-2.18,3.03-3,4.55a45.288,45.288,0,0,0-3.264,7.524c-.2.6.906,1.33,1.219.66Z" transform="translate(2625.764 487.873)"/>
    <path id="Path_154" data-name="Path 154" class="cls-2" d="M443.377,386.7c-.514-2.091-2.146-3.756-3.667-5.2v1.286a7.982,7.982,0,0,0,5.411-3.6l-1.643-.7a10.6,10.6,0,0,0,3.141,5.266l-.179-1.33a8.943,8.943,0,0,0-4.136,3.9c-.3.593.749,1.185,1.2.816a25.851,25.851,0,0,1,4.215-3.175c.581-.3.145-1.029-.179-1.33a8.061,8.061,0,0,1-2.325-4.025c-.123-.492-1.207-1.375-1.632-.7a7.256,7.256,0,0,1-4.684,3.354c-.7.168-.38.961,0,1.286a26.9,26.9,0,0,1,3.712,4.338c.224.291.939.391.794-.157Z" transform="translate(2625.447 486.642)"/>
    <path id="Path_155" data-name="Path 155" class="cls-2" d="M436.574,554.23c2.158.391,6.126,2.4,7.01,4.74.179.481,1.353,1.42,1.632.514a12.723,12.723,0,0,1,1.677-4.058c1-1.263,2.337-1.442,3.756-1.878.939-.279.056-1.442-.593-1.487-4.148-.235-5.59,3.074-6.473,6.529l1.554.3c-1.286-3.086-5.59-5.489-8.854-5.735-.827,0-.235.984.291,1.118Z" transform="translate(2625.139 507.211)"/>
    <path id="Path_156" data-name="Path 156" class="cls-2" d="M449.691,552.707a9.48,9.48,0,0,1-3.723-2.035c-.961-.839-1.61-2.124-2.627-2.851-.436-.3-1.118-.324-1.051.38.235,1.409,2.147,2.9,3.22,3.7a7.278,7.278,0,0,0,4.282,1.733c.66,0,.3-.794-.123-.917Z" transform="translate(2625.896 506.688)"/>
    <path id="Path_157" data-name="Path 157" class="cls-2" d="M443.282,547.874a16.678,16.678,0,0,1-3.577,3.835,9.263,9.263,0,0,1-2.147,1.118c-.7.246-1.241.235-1.565.928-.134.3.2.716.447.827,1.543.671,3.41-.525,4.64-1.476a8.832,8.832,0,0,0,3.153-4.561c.112-.425-.615-1.118-.95-.648Z" transform="translate(2625.15 506.702)"/>
  </g>
</svg>
