<svg xmlns="http://www.w3.org/2000/svg" viewBox="0 0 38.418 38.418">
  <defs>
    <style>
      .cls-1 {
        fill: #ffbf9b;
      }
    </style>
  </defs>
  <path id="_003-hotel" data-name="003-hotel" class="cls-1" d="M37.292,36.167H33.841V1.126A1.125,1.125,0,0,0,32.715,0H12.456A1.125,1.125,0,0,0,11.33,1.126V14.71a5.625,5.625,0,0,0-9,4.5,5.3,5.3,0,0,0,.129,1.148A7.793,7.793,0,0,0,0,25.962a7.915,7.915,0,0,0,6.828,7.8v2.405h-5.7a1.126,1.126,0,0,0,0,2.251H37.292a1.126,1.126,0,0,0,0-2.251ZM20.334,20.334v-4.5h4.5v4.5Zm-6.878,0a5.3,5.3,0,0,0,.125-1.126V15.832h4.5v4.5ZM24.836,9.079v4.5h-4.5v-4.5Zm-4.5-2.251V2.251h4.5V6.828ZM31.59,13.581h-4.5v-4.5h4.5Zm-13.506,0h-4.5v-4.5h4.5Zm9,2.251h4.5v4.5h-4.5Zm4.5-9h-4.5V2.251h4.5ZM18.083,2.251V6.828h-4.5V2.251ZM2.251,25.962A5.64,5.64,0,0,1,4.441,21.6a1.126,1.126,0,0,0,.351-1.257,3.328,3.328,0,0,1-.215-1.138,3.377,3.377,0,1,1,6.753,0,3.324,3.324,0,0,1-.215,1.138,1.126,1.126,0,0,0,.351,1.257,5.6,5.6,0,0,1-2.388,9.872v-2.8L11,26.758a1.125,1.125,0,0,0-1.592-1.592l-.33.329V19.209a1.126,1.126,0,1,0-2.251,0v4.036l-.33-.329a1.125,1.125,0,1,0-1.592,1.592l1.921,1.922v5.051A5.656,5.656,0,0,1,2.251,25.962Zm6.828,7.8a7.814,7.814,0,0,0,2.251-.681v3.087H9.079Zm15.757,2.407h-4.5V29.338h4.5Zm2.251,0V29.338h1.126a1.126,1.126,0,1,0,0-2.251H16.958a1.126,1.126,0,0,0,0,2.251h1.126v6.828h-4.5v-4.7a7.852,7.852,0,0,0,2.251-5.508,7.744,7.744,0,0,0-.774-3.377H31.59V36.167Zm0,0"/>
</svg>
