<svg id="Group_73" data-name="Group 73" xmlns="http://www.w3.org/2000/svg" viewBox="0 0 39.876 39.876">
  <defs>
    <style>
      .cls-1 {
        fill: #ffbf9b;
      }
    </style>
  </defs>
  <g id="Group_72" data-name="Group 72">
    <circle id="Ellipse_6" data-name="Ellipse 6" class="cls-1" cx="1.558" cy="1.558" r="1.558" transform="translate(28.505 14.798)"/>
    <path id="Path_41" data-name="Path 41" class="cls-1" d="M33.646,3.115H31.621V1.558a1.558,1.558,0,1,0-3.115,0V3.115H21.418V1.558a1.558,1.558,0,1,0-3.115,0V3.115h-7.01V1.558a1.558,1.558,0,1,0-3.115,0V3.115H6.231A6.238,6.238,0,0,0,0,9.346v24.3a6.238,6.238,0,0,0,6.231,6.231H18.147a1.558,1.558,0,1,0,0-3.115H6.231a3.119,3.119,0,0,1-3.115-3.115V9.346A3.119,3.119,0,0,1,6.231,6.231H8.178V7.788a1.558,1.558,0,1,0,3.115,0V6.231H18.3V7.788a1.558,1.558,0,1,0,3.115,0V6.231h7.087V7.788a1.558,1.558,0,1,0,3.115,0V6.231h2.025a3.119,3.119,0,0,1,3.115,3.115v8.879a1.558,1.558,0,1,0,3.115,0V9.346A6.238,6.238,0,0,0,33.646,3.115Z"/>
    <path id="Path_42" data-name="Path 42" class="cls-1" d="M279.424,270a9.424,9.424,0,1,0,9.424,9.424A9.435,9.435,0,0,0,279.424,270Zm0,15.732a6.309,6.309,0,1,1,6.309-6.309A6.316,6.316,0,0,1,279.424,285.732Z" transform="translate(-248.971 -248.971)"/>
    <path id="Path_43" data-name="Path 43" class="cls-1" d="M374.816,333.193h-.7v-1.636a1.558,1.558,0,1,0-3.115,0v3.193a1.558,1.558,0,0,0,1.558,1.558h2.259a1.558,1.558,0,1,0,0-3.115Z" transform="translate(-342.105 -304.298)"/>
    <circle id="Ellipse_7" data-name="Ellipse 7" class="cls-1" cx="1.558" cy="1.558" r="1.558" transform="translate(21.73 14.798)"/>
    <circle id="Ellipse_8" data-name="Ellipse 8" class="cls-1" cx="1.558" cy="1.558" r="1.558" transform="translate(14.954 21.574)"/>
    <circle id="Ellipse_9" data-name="Ellipse 9" class="cls-1" cx="1.558" cy="1.558" r="1.558" transform="translate(8.178 14.798)"/>
    <circle id="Ellipse_10" data-name="Ellipse 10" class="cls-1" cx="1.558" cy="1.558" r="1.558" transform="translate(8.178 21.574)"/>
    <circle id="Ellipse_11" data-name="Ellipse 11" class="cls-1" cx="1.558" cy="1.558" r="1.558" transform="translate(8.178 28.35)"/>
    <circle id="Ellipse_12" data-name="Ellipse 12" class="cls-1" cx="1.558" cy="1.558" r="1.558" transform="translate(14.954 28.35)"/>
    <circle id="Ellipse_13" data-name="Ellipse 13" class="cls-1" cx="1.558" cy="1.558" r="1.558" transform="translate(14.954 14.798)"/>
  </g>
</svg>
