<svg width="24" height="24" viewBox="0 0 24 24" fill="none" xmlns="http://www.w3.org/2000/svg">
<path d="M21.1696 2.05914C20.4528 1.93567 19.727 1.87212 18.9996 1.86914C16.518 1.8671 14.0881 2.57872 11.9996 3.91915C9.90574 2.59632 7.47624 1.90217 4.99959 1.91914C4.27224 1.92212 3.5464 1.98567 2.82959 2.10914C2.5948 2.14962 2.38217 2.2726 2.23001 2.45593C2.07784 2.63927 1.99613 2.87091 1.99959 3.10914V15.1091C1.99745 15.256 2.02772 15.4016 2.08824 15.5355C2.14877 15.6694 2.23806 15.7884 2.34977 15.8838C2.46147 15.9793 2.59285 16.049 2.73455 16.0879C2.87625 16.1269 3.02479 16.1341 3.16959 16.1091C4.60261 15.861 6.0708 15.9022 7.48766 16.2302C8.90452 16.5582 10.2414 17.1665 11.4196 18.0191L11.5396 18.0891H11.6496C11.7605 18.1353 11.8795 18.1591 11.9996 18.1591C12.1198 18.1591 12.2387 18.1353 12.3496 18.0891H12.4596L12.5796 18.0191C13.7496 17.1474 15.0826 16.5194 16.4998 16.1725C17.9169 15.8255 19.3893 15.7665 20.8296 15.9991C20.9744 16.0241 21.123 16.0169 21.2647 15.9779C21.4064 15.939 21.5377 15.8693 21.6494 15.7738C21.7612 15.6784 21.8504 15.5594 21.911 15.4255C21.9715 15.2916 22.0018 15.146 21.9996 14.9991V2.99915C21.9892 2.7713 21.9012 2.55385 21.7503 2.38288C21.5993 2.2119 21.3944 2.09768 21.1696 2.05914ZM10.9996 15.3491C9.14948 14.3758 7.09011 13.8678 4.99959 13.8691H3.99959V3.86914C4.33265 3.84994 4.66654 3.84994 4.99959 3.86914C7.13298 3.86678 9.21981 4.49284 10.9996 5.66915V15.3491ZM19.9996 13.9091H18.9996C16.9091 13.9078 14.8497 14.4158 12.9996 15.3891V5.66915C14.7794 4.49284 16.8662 3.86678 18.9996 3.86914C19.3327 3.84994 19.6666 3.84994 19.9996 3.86914V13.9091ZM21.1696 18.0591C20.4528 17.9356 19.727 17.8721 18.9996 17.8691C16.518 17.8671 14.0881 18.5787 11.9996 19.9191C9.91111 18.5787 7.48123 17.8671 4.99959 17.8691C4.27224 17.8721 3.5464 17.9356 2.82959 18.0591C2.69942 18.0798 2.57462 18.1259 2.46236 18.195C2.3501 18.2641 2.25259 18.3546 2.17546 18.4615C2.09833 18.5684 2.04308 18.6894 2.0129 18.8177C1.98272 18.946 1.97819 19.079 1.99959 19.2091C2.05041 19.4688 2.20208 19.6977 2.42138 19.8458C2.64068 19.9939 2.90973 20.049 3.16959 19.9991C4.60261 19.751 6.0708 19.7922 7.48766 20.1202C8.90452 20.4482 10.2414 21.0565 11.4196 21.9091C11.589 22.0297 11.7917 22.0945 11.9996 22.0945C12.2075 22.0945 12.4103 22.0297 12.5796 21.9091C13.7578 21.0565 15.0947 20.4482 16.5116 20.1202C17.9284 19.7922 19.3966 19.751 20.8296 19.9991C21.0895 20.049 21.3585 19.9939 21.5778 19.8458C21.7971 19.6977 21.9488 19.4688 21.9996 19.2091C22.021 19.079 22.0165 18.946 21.9863 18.8177C21.9561 18.6894 21.9009 18.5684 21.8238 18.4615C21.7466 18.3546 21.6491 18.2641 21.5369 18.195C21.4246 18.1259 21.2998 18.0798 21.1696 18.0591Z" fill="#939598"/>
</svg>
