<svg width="24" height="24" viewBox="0 0 24 24" fill="none" xmlns="http://www.w3.org/2000/svg">
<path d="M21.1696 18.0601C20.4528 17.9366 19.727 17.8731 18.9996 17.8701C16.518 17.8681 14.0881 18.5797 11.9996 19.9201C9.91111 18.5797 7.48123 17.8681 4.99959 17.8701C4.27224 17.8731 3.5464 17.9366 2.82959 18.0601C2.69942 18.0808 2.57462 18.1269 2.46236 18.196C2.3501 18.2651 2.25259 18.3556 2.17546 18.4625C2.09833 18.5694 2.04308 18.6904 2.0129 18.8187C1.98272 18.947 1.97819 19.08 1.99959 19.2101C2.05041 19.4698 2.20208 19.6987 2.42138 19.8468C2.64068 19.9949 2.90973 20.05 3.16959 20.0001C4.60261 19.752 6.0708 19.7932 7.48766 20.1212C8.90452 20.4492 10.2414 21.0575 11.4196 21.9101C11.589 22.0307 11.7917 22.0955 11.9996 22.0955C12.2075 22.0955 12.4103 22.0307 12.5796 21.9101C13.7578 21.0575 15.0947 20.4492 16.5116 20.1212C17.9284 19.7932 19.3966 19.752 20.8296 20.0001C21.0895 20.05 21.3585 19.9949 21.5778 19.8468C21.7971 19.6987 21.9488 19.4698 21.9996 19.2101C22.021 19.08 22.0165 18.947 21.9863 18.8187C21.9561 18.6904 21.9009 18.5694 21.8238 18.4625C21.7466 18.3556 21.6491 18.2651 21.5369 18.196C21.4246 18.1269 21.2998 18.0808 21.1696 18.0601Z" fill="url(#paint0_linear_3033_2444)"/>
<path fill-rule="evenodd" clip-rule="evenodd" d="M19.0001 1.86914C19.7275 1.87212 20.4533 1.93567 21.1701 2.05914C21.3949 2.09768 21.5998 2.21191 21.7508 2.38288C21.9018 2.55385 21.9897 2.7713 22.0001 2.99915V14.9991C22.0023 15.146 21.972 15.2916 21.9115 15.4255C21.851 15.5594 21.7617 15.6784 21.65 15.7738C21.5383 15.8693 21.4069 15.939 21.2652 15.9779C21.1235 16.0169 20.975 16.0241 20.8301 15.9991C19.3898 15.7665 17.9174 15.8255 16.5003 16.1725C15.25 16.4786 14.0652 17.0034 13.0001 17.7214V3.33873C14.8471 2.3743 16.9052 1.86742 19.0001 1.86914ZM11.0001 3.34797C9.14954 2.39763 7.09164 1.90481 5.00011 1.91914C4.27275 1.92212 3.54691 1.98567 2.83011 2.10914C2.59531 2.14962 2.38269 2.2726 2.23052 2.45593C2.07835 2.63927 1.99664 2.87091 2.00011 3.10914V15.1091C1.99796 15.256 2.02823 15.4016 2.08876 15.5355C2.14928 15.6694 2.23857 15.7884 2.35028 15.8838C2.46199 15.9793 2.59336 16.049 2.73506 16.0879C2.87676 16.1269 3.0253 16.1341 3.17011 16.1091C4.60312 15.861 6.07131 15.9022 7.48817 16.2302C8.73922 16.5198 9.92792 17.0279 11.0001 17.7298V3.34797Z" fill="url(#paint1_linear_3033_2444)"/>
<defs>
<linearGradient id="paint0_linear_3033_2444" x1="-2.16128" y1="19.9828" x2="-0.954225" y2="25.7037" gradientUnits="userSpaceOnUse">
<stop stop-color="#FFF500"/>
<stop offset="1" stop-color="#FAAE1B"/>
</linearGradient>
<linearGradient id="paint1_linear_3033_2444" x1="3.87497" y1="4.16893" x2="14.3418" y2="16.1225" gradientUnits="userSpaceOnUse">
<stop stop-color="#FFBBCC"/>
<stop offset="1" stop-color="#F54291"/>
</linearGradient>
</defs>
</svg>
