<svg width="24" height="24" viewBox="0 0 24 24" fill="none" xmlns="http://www.w3.org/2000/svg">
<path fill-rule="evenodd" clip-rule="evenodd" d="M14.0001 2.74049L20.0001 8.00049C20.3164 8.28345 20.5692 8.63031 20.7415 9.01817C20.9139 9.40603 21.002 9.82605 21.0001 10.2505V19.0005C21.0001 19.7961 20.684 20.5592 20.1214 21.1218C19.5588 21.6844 18.7957 22.0005 18.0001 22.0005H16.0001V20.0005V15.0005C16.0001 14.2049 15.684 13.4418 15.1214 12.8792C14.5588 12.3166 13.7957 12.0005 13.0001 12.0005H11.0001C10.2044 12.0005 9.44138 12.3166 8.87877 12.8792C8.31918 13.4388 8.00348 14.1967 8.00012 14.9877V22.0005H6.00009C5.20444 22.0005 4.44138 21.6844 3.87877 21.1218C3.31616 20.5592 3.00009 19.7961 3.00009 19.0005V10.2605C2.99671 9.83437 3.08414 9.41242 3.25656 9.02274C3.42899 8.63305 3.68246 8.28456 4.00009 8.00049L10.0001 2.74049C10.5501 2.24854 11.2621 1.97656 12.0001 1.97656C12.738 1.97656 13.4501 2.24854 14.0001 2.74049Z" fill="url(#paint0_linear_3033_360)"/>
<path fill-rule="evenodd" clip-rule="evenodd" d="M10 22H14V15C14 14.7348 13.8946 14.4804 13.7071 14.2929C13.5196 14.1054 13.2652 14 13 14H11C10.7348 14 10.4804 14.1054 10.2929 14.2929C10.1054 14.4804 10 14.7348 10 15V22Z" fill="url(#paint1_linear_3033_360)"/>
<defs>
<linearGradient id="paint0_linear_3033_360" x1="4.68747" y1="4.88002" x2="17.7415" y2="15.5077" gradientUnits="userSpaceOnUse">
<stop stop-color="#FFBBCC"/>
<stop offset="1" stop-color="#F54291"/>
</linearGradient>
<linearGradient id="paint1_linear_3033_360" x1="9.17158" y1="18" x2="13.697" y2="20.2627" gradientUnits="userSpaceOnUse">
<stop stop-color="#FFF500"/>
<stop offset="1" stop-color="#FAAE1B"/>
</linearGradient>
</defs>
</svg>
