<svg width="24" height="24" viewBox="0 0 24 24" fill="none" xmlns="http://www.w3.org/2000/svg">
<path d="M4.142 4.00014L6.01 16.1361C6.04361 16.378 6.16438 16.5993 6.34962 16.7584C6.53487 16.9175 6.77184 17.0034 7.016 17.0001H18C18.2151 17.0002 18.4245 16.9308 18.5971 16.8023C18.7697 16.6739 18.8963 16.4932 18.958 16.2871L21.958 6.28714C22.0027 6.13783 22.0119 5.98013 21.9849 5.82663C21.9579 5.67313 21.8953 5.52807 21.8022 5.40304C21.7092 5.27801 21.5882 5.17646 21.4489 5.10651C21.3096 5.03656 21.1559 5.00013 21 5.00014H6.32L5.99 2.86214C5.95667 2.61738 5.83331 2.39383 5.644 2.23514C5.45967 2.07955 5.22518 1.99606 4.984 2.00014H3C2.86868 2.00014 2.73864 2.02601 2.61732 2.07626C2.49599 2.12652 2.38575 2.20018 2.29289 2.29304C2.20003 2.3859 2.12638 2.49613 2.07612 2.61746C2.02587 2.73879 2 2.86882 2 3.00014C2 3.13147 2.02587 3.2615 2.07612 3.38283C2.12638 3.50415 2.20003 3.61439 2.29289 3.70725C2.38575 3.80011 2.49599 3.87377 2.61732 3.92402C2.73864 3.97428 2.86868 4.00014 3 4.00014H4.142ZM7.858 15.0001L6.628 7.00014H13.142H19.656L17.256 15.0001H7.858Z" fill="url(#paint0_linear_3033_2319)"/>
<circle cx="8" cy="20" r="2" fill="url(#paint1_linear_3033_2319)"/>
<circle cx="17" cy="20" r="2" fill="url(#paint2_linear_3033_2319)"/>
<defs>
<linearGradient id="paint0_linear_3033_2319" x1="3.87496" y1="4.17502" x2="13.6864" y2="16.0228" gradientUnits="userSpaceOnUse">
<stop stop-color="#FFBBCC"/>
<stop offset="1" stop-color="#F54291"/>
</linearGradient>
<linearGradient id="paint1_linear_3033_2319" x1="5.17158" y1="20" x2="7.99998" y2="22.8284" gradientUnits="userSpaceOnUse">
<stop stop-color="#FFF500"/>
<stop offset="1" stop-color="#FAAE1B"/>
</linearGradient>
<linearGradient id="paint2_linear_3033_2319" x1="14.1716" y1="20" x2="17" y2="22.8284" gradientUnits="userSpaceOnUse">
<stop stop-color="#FFF500"/>
<stop offset="1" stop-color="#FAAE1B"/>
</linearGradient>
</defs>
</svg>
