<svg width="24" height="24" viewBox="0 0 24 24" fill="none" xmlns="http://www.w3.org/2000/svg">
<path d="M4.142 4.00014L6.01 16.1361C6.04361 16.378 6.16438 16.5993 6.34962 16.7584C6.53487 16.9175 6.77184 17.0034 7.016 17.0001H18C18.2151 17.0002 18.4245 16.9308 18.5971 16.8023C18.7697 16.6739 18.8963 16.4932 18.958 16.2871L21.958 6.28714C22.0027 6.13783 22.0119 5.98013 21.9849 5.82663C21.9579 5.67313 21.8953 5.52807 21.8022 5.40304C21.7092 5.27801 21.5882 5.17646 21.4489 5.10651C21.3096 5.03656 21.1559 5.00013 21 5.00014H6.32L5.99 2.86214C5.95667 2.61738 5.83331 2.39383 5.644 2.23514C5.45967 2.07955 5.22518 1.99606 4.984 2.00014H3C2.86868 2.00014 2.73864 2.02601 2.61732 2.07626C2.49599 2.12652 2.38575 2.20018 2.29289 2.29304C2.20003 2.3859 2.12638 2.49613 2.07612 2.61746C2.02587 2.73879 2 2.86882 2 3.00014C2 3.13147 2.02587 3.2615 2.07612 3.38283C2.12638 3.50415 2.20003 3.61439 2.29289 3.70725C2.38575 3.80011 2.49599 3.87377 2.61732 3.92402C2.73864 3.97428 2.86868 4.00014 3 4.00014H4.142ZM7.858 15.0001L6.628 7.00014H19.656L17.256 15.0001H7.858ZM10 20.0001C10 20.5306 9.78929 21.0393 9.41421 21.4144C9.03914 21.7894 8.53043 22.0001 8 22.0001C7.46957 22.0001 6.96086 21.7894 6.58579 21.4144C6.21071 21.0393 6 20.5306 6 20.0001C6 19.4697 6.21071 18.961 6.58579 18.5859C6.96086 18.2109 7.46957 18.0001 8 18.0001C8.53043 18.0001 9.03914 18.2109 9.41421 18.5859C9.78929 18.961 10 19.4697 10 20.0001ZM19 20.0001C19 20.5306 18.7893 21.0393 18.4142 21.4144C18.0391 21.7894 17.5304 22.0001 17 22.0001C16.4696 22.0001 15.9609 21.7894 15.5858 21.4144C15.2107 21.0393 15 20.5306 15 20.0001C15 19.4697 15.2107 18.961 15.5858 18.5859C15.9609 18.2109 16.4696 18.0001 17 18.0001C17.5304 18.0001 18.0391 18.2109 18.4142 18.5859C18.7893 18.961 19 19.4697 19 20.0001Z" fill="#939598"/>
</svg>
