<svg width="24" height="24" viewBox="0 0 24 24" fill="none" xmlns="http://www.w3.org/2000/svg">
<path d="M19.9009 12.6594C19.7406 12.4769 19.6522 12.2423 19.6522 11.9994C19.6522 11.7565 19.7406 11.5219 19.9009 11.3394L21.1809 9.89941C21.322 9.74208 21.4096 9.54412 21.4311 9.33392C21.4527 9.12372 21.4071 8.9121 21.3009 8.72941L19.3009 5.26941C19.1958 5.08693 19.0358 4.94229 18.8437 4.8561C18.6515 4.76991 18.4371 4.74657 18.2309 4.78941L16.3509 5.16941C16.1117 5.21884 15.8627 5.179 15.6508 5.05741C15.4389 4.93582 15.2789 4.7409 15.2009 4.50941L14.5909 2.67941C14.5238 2.48079 14.396 2.30828 14.2255 2.18625C14.0551 2.06423 13.8506 1.99887 13.6409 1.99941H9.64088C9.42281 1.98803 9.20701 2.04834 9.02644 2.17113C8.84587 2.29391 8.71046 2.47243 8.64088 2.67941L8.08087 4.50941C8.00287 4.7409 7.84284 4.93582 7.63098 5.05741C7.41912 5.179 7.17009 5.21884 6.93087 5.16941L5.00088 4.78941C4.80543 4.76179 4.60618 4.79263 4.42823 4.87805C4.25027 4.96347 4.10158 5.09964 4.00088 5.26941L2.00088 8.72941C1.89204 8.91006 1.8431 9.1205 1.86106 9.33064C1.87902 9.54077 1.96296 9.73985 2.10088 9.89941L3.37088 11.3394C3.5312 11.5219 3.61961 11.7565 3.61961 11.9994C3.61961 12.2423 3.5312 12.4769 3.37088 12.6594L2.10088 14.0994C1.96296 14.259 1.87902 14.458 1.86106 14.6682C1.8431 14.8783 1.89204 15.0888 2.00088 15.2694L4.00088 18.7294C4.10598 18.9119 4.266 19.0565 4.45813 19.1427C4.65026 19.2289 4.8647 19.2522 5.07088 19.2094L6.95087 18.8294C7.19009 18.78 7.43912 18.8198 7.65098 18.9414C7.86284 19.063 8.02288 19.2579 8.10088 19.4894L8.71088 21.3194C8.78046 21.5264 8.91586 21.7049 9.09644 21.8277C9.27701 21.9505 9.49281 22.0108 9.71088 21.9994H13.7109C13.9206 21.9999 14.1251 21.9346 14.2955 21.8126C14.466 21.6905 14.5938 21.518 14.6609 21.3194L15.2709 19.4894C15.3489 19.2579 15.5089 19.063 15.7208 18.9414C15.9327 18.8198 16.1817 18.78 16.4209 18.8294L18.3009 19.2094C18.5071 19.2522 18.7215 19.2289 18.9137 19.1427C19.1058 19.0565 19.2658 18.9119 19.3709 18.7294L21.3709 15.2694C21.4771 15.0867 21.5227 14.8751 21.5011 14.6649C21.4796 14.4547 21.392 14.2567 21.2509 14.0994L19.9009 12.6594ZM18.4109 13.9994L19.2109 14.8994L17.9309 17.1194L16.7509 16.8794C16.0307 16.7322 15.2815 16.8545 14.6455 17.2232C14.0095 17.5919 13.5311 18.1812 13.3009 18.8794L12.9209 19.9994H10.3609L10.0009 18.8594C9.77073 18.1612 9.29226 17.5719 8.65628 17.2032C8.02031 16.8345 7.2711 16.7122 6.55088 16.8594L5.37088 17.0994L4.07088 14.8894L4.87088 13.9894C5.36283 13.4394 5.63481 12.7273 5.63481 11.9894C5.63481 11.2515 5.36283 10.5394 4.87088 9.98941L4.07088 9.08941L5.35088 6.88941L6.53088 7.12941C7.2511 7.27663 8.0003 7.15429 8.63627 6.78561C9.27225 6.41693 9.75072 5.82757 9.98088 5.12941L10.3609 3.99941H12.9209L13.3009 5.13941C13.5311 5.83757 14.0095 6.42693 14.6455 6.79561C15.2815 7.16429 16.0307 7.28663 16.7509 7.13941L17.9309 6.89941L19.2109 9.11941L18.4109 10.0194C17.9245 10.5682 17.6559 11.2761 17.6559 12.0094C17.6559 12.7427 17.9245 13.4506 18.4109 13.9994ZM11.6409 7.99941C10.8498 7.99941 10.0764 8.23401 9.41859 8.67353C8.76079 9.11306 8.24811 9.73777 7.94535 10.4687C7.6426 11.1996 7.5634 12.0038 7.71773 12.7798C7.87207 13.5557 8.25304 14.2684 8.81245 14.8278C9.37186 15.3872 10.0846 15.7682 10.8606 15.9225C11.6365 16.0769 12.4407 15.9977 13.1717 15.6949C13.9026 15.3922 14.5273 14.8795 14.9668 14.2217C15.4063 13.5639 15.6409 12.7905 15.6409 11.9994C15.6409 10.9385 15.2195 9.92113 14.4693 9.17098C13.7192 8.42084 12.7018 7.99941 11.6409 7.99941ZM11.6409 13.9994C11.2454 13.9994 10.8587 13.8821 10.5298 13.6623C10.2009 13.4426 9.94448 13.1302 9.79312 12.7648C9.64174 12.3993 9.60213 11.9972 9.6793 11.6092C9.75647 11.2213 9.94695 10.8649 10.2267 10.5852C10.5064 10.3055 10.8628 10.115 11.2507 10.0378C11.6387 9.96067 12.0408 10.0003 12.4063 10.1516C12.7717 10.303 13.0841 10.5594 13.3039 10.8883C13.5236 11.2172 13.6409 11.6038 13.6409 11.9994C13.6409 12.5298 13.4302 13.0385 13.0551 13.4136C12.6801 13.7887 12.1714 13.9994 11.6409 13.9994Z" fill="#939598"/>
</svg>
