<svg width="24" height="24" viewBox="0 0 24 24" fill="none" xmlns="http://www.w3.org/2000/svg">
<path fill-rule="evenodd" clip-rule="evenodd" d="M19.6522 12.0004C19.6522 12.2433 19.7406 12.4779 19.9009 12.6604L21.2509 14.1004C21.392 14.2577 21.4796 14.4557 21.5011 14.6659C21.5227 14.8761 21.4771 15.0877 21.3709 15.2704L19.3709 18.7304C19.2658 18.9129 19.1058 19.0575 18.9137 19.1437C18.7215 19.2299 18.5071 19.2532 18.3009 19.2104L16.4209 18.8304C16.1817 18.781 15.9327 18.8208 15.7208 18.9424C15.5089 19.064 15.3489 19.2589 15.2709 19.4904L14.6609 21.3204C14.5938 21.519 14.466 21.6915 14.2955 21.8136C14.1251 21.9356 13.9206 22.0009 13.7109 22.0004H9.71088C9.49281 22.0118 9.27701 21.9515 9.09644 21.8287C8.91586 21.7059 8.78046 21.5274 8.71088 21.3204L8.10088 19.4904C8.02288 19.2589 7.86284 19.064 7.65098 18.9424C7.43912 18.8208 7.19009 18.781 6.95087 18.8304L5.07088 19.2104C4.8647 19.2532 4.65026 19.2299 4.45813 19.1437C4.266 19.0575 4.10597 18.9129 4.00088 18.7304L2.00088 15.2704C1.89204 15.0898 1.8431 14.8793 1.86106 14.6692C1.87902 14.459 1.96296 14.26 2.10088 14.1004L3.37088 12.6604C3.5312 12.4779 3.61961 12.2433 3.61961 12.0004C3.61961 11.7575 3.5312 11.5229 3.37088 11.3404L2.10088 9.90038C1.96296 9.74082 1.87902 9.54174 1.86106 9.3316C1.8431 9.12147 1.89204 8.91103 2.00088 8.73038L4.00088 5.27038C4.10158 5.10061 4.25027 4.96444 4.42822 4.87902C4.60618 4.7936 4.80543 4.76276 5.00088 4.79038L6.93087 5.17038C7.17008 5.21981 7.41912 5.17997 7.63098 5.05838C7.84284 4.93679 8.00287 4.74186 8.08087 4.51038L8.64088 2.68038C8.71046 2.4734 8.84587 2.29488 9.02644 2.17209C9.20701 2.04931 9.42281 1.989 9.64088 2.00038H13.6409C13.8506 1.99984 14.0551 2.0652 14.2255 2.18722C14.396 2.30925 14.5238 2.48176 14.5909 2.68038L15.2009 4.51038C15.2789 4.74186 15.4389 4.93679 15.6508 5.05838C15.8627 5.17997 16.1117 5.21981 16.3509 5.17038L18.2309 4.79038C18.4371 4.74754 18.6515 4.77088 18.8437 4.85707C19.0358 4.94326 19.1958 5.0879 19.3009 5.27038L21.3009 8.73038C21.4071 8.91307 21.4527 9.12469 21.4311 9.33489C21.4096 9.54508 21.322 9.74305 21.1809 9.90038L19.9009 11.3404C19.7406 11.5229 19.6522 11.7575 19.6522 12.0004ZM11.6409 8.00038C10.8498 8.00038 10.0764 8.23498 9.41859 8.6745C8.76079 9.11403 8.24811 9.73874 7.94535 10.4697C7.6426 11.2006 7.56339 12.0048 7.71773 12.7808C7.87207 13.5567 8.25304 14.2694 8.81245 14.8288C9.37186 15.3882 10.0846 15.7692 10.8606 15.9235C11.6365 16.0779 12.4407 15.9987 13.1716 15.6959C13.9026 15.3932 14.5273 14.8805 14.9668 14.2227C15.4063 13.5649 15.6409 12.7915 15.6409 12.0004C15.6409 10.9395 15.2195 9.9221 14.4693 9.17195C13.7192 8.42181 12.7018 8.00038 11.6409 8.00038Z" fill="url(#paint0_linear_3033_498)"/>
<path d="M11.6406 14C11.2451 14 10.8584 13.8827 10.5295 13.6629C10.2006 13.4432 9.94424 13.1308 9.79287 12.7654C9.64149 12.3999 9.60188 11.9978 9.67905 11.6098C9.75623 11.2219 9.94671 10.8655 10.2264 10.5858C10.5061 10.3061 10.8625 10.1156 11.2504 10.0384C11.6384 9.96126 12.0405 10.0009 12.406 10.1522C12.7714 10.3036 13.0838 10.56 13.3036 10.8889C13.5233 11.2178 13.6406 11.6044 13.6406 12C13.6406 12.5304 13.4299 13.0391 13.0548 13.4142C12.6798 13.7893 12.171 14 11.6406 14Z" fill="url(#paint1_linear_3033_498)"/>
<path d="M11.6406 14C11.2451 14 10.8584 13.8827 10.5295 13.6629C10.2006 13.4432 9.94424 13.1308 9.79287 12.7654C9.64149 12.3999 9.60188 11.9978 9.67905 11.6098C9.75623 11.2219 9.94671 10.8655 10.2264 10.5858C10.5061 10.3061 10.8625 10.1156 11.2504 10.0384C11.6384 9.96126 12.0405 10.0009 12.406 10.1522C12.7714 10.3036 13.0838 10.56 13.3036 10.8889C13.5233 11.2178 13.6406 11.6044 13.6406 12C13.6406 12.5304 13.4299 13.0391 13.0548 13.4142C12.6798 13.7893 12.171 14 11.6406 14Z" fill="url(#paint2_linear_3033_498)"/>
<defs>
<linearGradient id="paint0_linear_3033_498" x1="3.69946" y1="4.8994" x2="16.9258" y2="16.6662" gradientUnits="userSpaceOnUse">
<stop stop-color="#FFBBCC"/>
<stop offset="1" stop-color="#F54291"/>
</linearGradient>
<linearGradient id="paint1_linear_3033_498" x1="8.8122" y1="12" x2="11.6406" y2="14.8284" gradientUnits="userSpaceOnUse">
<stop stop-color="#FFF500"/>
<stop offset="1" stop-color="#FAAE1B"/>
</linearGradient>
<linearGradient id="paint2_linear_3033_498" x1="8.8122" y1="12" x2="11.6406" y2="14.8284" gradientUnits="userSpaceOnUse">
<stop stop-color="#FFF500"/>
<stop offset="1" stop-color="#FAAE1B"/>
</linearGradient>
</defs>
</svg>
