<svg width="64" height="76" viewBox="0 0 64 76" fill="none" xmlns="http://www.w3.org/2000/svg">
<g clip-path="url(#clip0_2441:58)">
<path d="M29.5729 57.7649L29.3363 58.1251L27.5674 60.813L27.4867 60.9152C26.6049 61.9474 25.9435 62.1355 24.6531 61.727C24.4897 61.668 24.3227 61.6195 24.1531 61.5818C22.9379 61.313 22.4163 60.4367 22.2281 59.3562C22.1091 58.3592 22.2556 57.3484 22.6529 56.4262C22.8035 56.0123 23.0024 55.6145 23.1906 55.2113C23.2229 55.1306 23.2551 55.0554 23.3035 54.9532H23.0777C21.8786 55.0285 20.685 55.1145 19.4913 55.179C19.2709 55.179 19.2171 55.3027 19.158 55.4693C18.3612 57.8407 17.314 60.1205 16.034 62.2699C14.8946 64.253 13.4233 66.0259 11.6841 67.5115C10.4284 68.606 8.92097 69.3725 7.29664 69.7425C6.38978 69.9608 5.44767 69.9898 4.52907 69.828C3.61046 69.6661 2.73506 69.3168 1.95743 68.8018C1.41363 68.4352 0.960861 67.9491 0.633757 67.3807C0.306653 66.8123 0.113875 66.1767 0.0701617 65.5224C-0.0208735 64.5003 0.125914 63.4709 0.499035 62.515C0.872155 61.559 1.46149 60.7023 2.2209 60.012C2.72625 59.543 3.26539 59.1118 3.83395 58.7218C3.90354 58.6838 3.95957 58.6251 3.99426 58.5538C4.02895 58.4825 4.04057 58.4022 4.02752 58.324C3.90385 56.9307 3.90385 55.5293 4.02752 54.1361C4.09204 53.1093 4.15656 52.0771 4.24797 51.0503C4.35551 49.8299 4.46842 48.6096 4.61897 47.4C4.76953 46.1904 4.93621 44.9217 5.15666 43.6959C5.35992 42.7249 5.61297 41.7649 5.91479 40.8198C6.16213 39.9865 6.68906 39.7446 7.65689 39.6263C7.7557 39.6054 7.85807 39.6081 7.95561 39.6344C8.05316 39.6606 8.14311 39.7095 8.21811 39.7771C8.29311 39.8448 8.35102 39.9292 8.38712 40.0235C8.42321 40.1179 8.43646 40.2194 8.42578 40.3198C8.42578 41.0563 8.39352 41.7928 8.34513 42.5293C8.23759 44.1421 8.1193 45.7549 8.00639 47.3355C8.00305 47.3626 8.00565 47.3901 8.014 47.4161C8.02236 47.4421 8.03627 47.4659 8.05478 47.486C8.09242 47.4215 8.12468 47.357 8.15694 47.2871C8.8554 45.6757 9.77076 44.1672 10.8776 42.8035C11.7169 41.7113 12.9144 40.9498 14.2597 40.6531C15.1221 40.4638 16.0199 40.514 16.8558 40.7983C17.6917 41.0826 18.4339 41.5901 19.002 42.2659C19.9438 43.3248 20.5107 44.6643 20.6151 46.0775C20.7885 48.1168 20.6047 50.1708 20.072 52.147C19.8946 52.8673 19.6903 53.5877 19.4967 54.2974C19.4831 54.3451 19.4723 54.3935 19.4644 54.4425C19.8785 54.4425 20.2817 54.4425 20.685 54.4425C21.5507 54.4049 22.4163 54.3457 23.282 54.3081C23.3972 54.3133 23.5116 54.287 23.613 54.2321C23.7143 54.1772 23.7988 54.0956 23.8573 53.9963C24.2884 53.3404 24.8579 52.7868 25.5257 52.3745C26.1936 51.9621 26.9437 51.701 27.7233 51.6094C28.247 51.4854 28.7978 51.5507 29.278 51.7937C29.7582 52.0368 30.137 52.4418 30.3472 52.9372L30.4977 53.2329C30.5569 53.1415 30.6053 53.077 30.6429 53.0071C30.7341 52.8331 30.8598 52.6795 31.0123 52.5556C31.1648 52.4318 31.341 52.3403 31.5301 52.2867C31.9182 52.146 32.3201 52.0469 32.7291 51.9911C32.8513 51.971 32.9766 51.9801 33.0946 52.0177C33.2126 52.0553 33.32 52.1202 33.4081 52.2073C33.4962 52.2943 33.5624 52.4009 33.6014 52.5185C33.6404 52.636 33.651 52.7611 33.6324 52.8835C33.5733 53.5985 33.4389 54.3081 33.326 55.0339C33.0786 56.566 32.7883 58.0982 32.5786 59.6303C32.5554 60.0197 32.5698 60.4103 32.6216 60.7969C32.6367 60.8827 32.6638 60.966 32.7022 61.0442C32.7746 60.9981 32.843 60.9459 32.9066 60.8883C33.8043 59.9788 34.5667 58.945 35.1702 57.8186C35.2237 57.7004 35.2512 57.5721 35.2509 57.4423C35.2567 54.8821 35.5489 52.3306 36.1219 49.8353C36.1649 49.6525 36.1219 49.588 35.9552 49.5396C34.6219 49.1053 33.2601 48.764 31.8796 48.5182C29.9708 48.2386 28.0566 48.1096 26.1801 48.6902C25.6516 48.8844 25.1361 49.1124 24.637 49.373C24.3789 49.4966 24.1315 49.6364 23.8735 49.7654C23.7346 49.8151 23.5865 49.8336 23.4397 49.8197C23.2929 49.8057 23.1509 49.7597 23.0239 49.6848C23.0058 49.647 22.9964 49.6057 22.9964 49.5638C22.9964 49.5219 23.0058 49.4806 23.0239 49.4429C23.1202 49.3323 23.2305 49.2347 23.3519 49.1525C24.6523 48.1967 26.1721 47.5829 27.7717 47.3677C28.9735 47.179 30.1922 47.1213 31.4064 47.1957C33.0961 47.2846 34.7738 47.5312 36.4176 47.9322C36.5359 47.9322 36.6488 47.9967 36.6811 47.8301C36.8478 46.8893 37.5737 46.6205 38.3641 46.4592C38.6322 46.4076 38.9078 46.4076 39.176 46.4592C39.3341 46.4857 39.4779 46.567 39.5821 46.6889C39.6863 46.8108 39.7443 46.9655 39.7459 47.1258C39.7728 47.5573 39.7728 47.99 39.7459 48.4214C39.7459 48.6096 39.7835 48.6848 39.9664 48.7117C40.8589 48.8461 41.7461 49.0397 42.6548 49.1203C43.8538 49.2332 45.0582 49.33 46.2626 49.33C49.744 49.3895 53.1472 48.295 55.941 46.2173C57.6779 44.9696 59.0737 43.306 60.0005 41.3789C60.3068 40.8296 60.4557 40.2064 60.4306 39.5779C60.3996 39.2601 60.3064 38.9514 60.1564 38.6694C60.0892 38.5334 59.9954 38.4122 59.8806 38.3131C59.7658 38.2139 59.6322 38.1389 59.4878 38.0922C59.3434 38.0456 59.1912 38.0284 59.04 38.0417C58.8889 38.055 58.7419 38.0984 58.6079 38.1694C58.0329 38.4245 57.5208 38.8025 57.1077 39.2769C56.5701 39.8736 56.0324 40.4865 55.4517 41.0778C55.3669 41.1923 55.2602 41.2888 55.1377 41.3617C55.0153 41.4346 54.8796 41.4824 54.7385 41.5025C54.5974 41.5225 54.4538 41.5142 54.3159 41.4783C54.1781 41.4423 54.0487 41.3793 53.9354 41.2929C53.8919 41.2611 53.8553 41.221 53.8276 41.1748C53.7999 41.1286 53.7817 41.0774 53.7741 41.0241C53.7203 40.4865 53.7203 39.9811 53.6451 39.4704C53.5231 38.3139 53.0439 37.224 52.274 36.3523C52.1933 36.2663 52.1019 36.1964 52.0105 36.1158L51.9406 36.1534C52.0428 36.5728 52.1342 36.9921 52.2363 37.406C52.6396 38.8906 52.8493 40.4211 52.86 41.9595C52.8408 42.9222 52.7237 43.8805 52.5105 44.8195C52.3439 45.5721 52.1826 46.3302 52.0159 47.0828C51.9971 47.1659 51.9701 47.247 51.9352 47.3247C51.7578 47.7494 51.5535 47.8623 51.1126 47.7225C50.6717 47.5828 50.634 47.5881 50.6932 47.0935C50.7846 46.3194 50.8921 45.5453 50.9566 44.7657C51.0166 43.8893 50.9349 43.0089 50.7147 42.1584C50.3329 40.5456 49.892 38.9328 49.4834 37.32C49.4036 37.0082 49.3532 36.6897 49.3328 36.3685C49.309 36.1515 49.3518 35.9324 49.4556 35.7404C49.5593 35.5483 49.719 35.3924 49.9135 35.2933C50.4239 35.0406 50.9667 34.8597 51.5266 34.7557C51.9139 34.724 52.303 34.7883 52.6594 34.9431C53.0158 35.0978 53.3285 35.3381 53.5698 35.6427C54.3777 36.5277 54.902 37.6343 55.0753 38.8199C55.1129 39.0242 55.1398 39.2285 55.1775 39.4919C55.285 39.3951 55.3656 39.3253 55.4409 39.25C56.2405 38.4342 57.2514 37.8571 58.3605 37.5834C58.7244 37.4859 59.1072 37.4822 59.4729 37.5729C59.8386 37.6635 60.1753 37.8455 60.4514 38.1017C60.7276 38.358 60.9342 38.6801 61.0519 39.038C61.1695 39.3958 61.1944 39.7777 61.1242 40.1478C60.8943 41.5834 60.3042 42.9373 59.409 44.083C57.3786 46.8839 54.517 48.9737 51.2309 50.0557C48.6746 50.9607 45.949 51.2857 43.2516 51.0073C42.0203 50.889 40.7998 50.6578 39.5685 50.4697C39.5326 50.4678 39.4968 50.4678 39.4609 50.4697C39.3857 50.9159 39.305 51.3675 39.2244 51.819C38.7619 54.3073 38.4441 56.8203 38.2727 59.3454C38.1632 60.9142 38.183 62.4893 38.3318 64.0548C38.3834 64.4165 38.4534 64.7754 38.5415 65.13L38.6867 65.1998C38.7888 65.0601 38.8802 64.9149 38.9878 64.7859C39.6135 63.9934 40.119 63.113 40.4879 62.1732C40.8267 61.3829 41.1278 60.5604 41.4181 59.7755C41.4661 59.5748 41.4896 59.369 41.488 59.1626C41.5245 58.2484 41.7503 57.3516 42.151 56.529C42.5518 55.7064 43.1187 54.9758 43.8162 54.3834C44.7511 53.599 45.9295 53.1639 47.1498 53.1523C47.4245 53.1386 47.6989 53.1843 47.9543 53.2862C48.2097 53.3881 48.4401 53.5438 48.6299 53.7428C48.8197 53.9418 48.9644 54.1793 49.0542 54.4392C49.1439 54.6991 49.1766 54.9752 49.15 55.2489C49.0838 55.7951 48.8497 56.3073 48.4798 56.7146C48.1099 57.122 47.6227 57.4044 47.0853 57.5229C46.6222 57.5687 46.1558 57.5687 45.6927 57.5229C45.4669 57.5229 45.3808 57.5229 45.3271 57.7756C45.0263 59.1278 45.201 60.5423 45.8217 61.7807C46.0358 62.1887 46.3239 62.5533 46.6713 62.8559C46.8633 63.036 47.11 63.1465 47.3722 63.1699C47.6344 63.1933 47.8968 63.1282 48.1177 62.9849C48.9685 62.4696 49.678 61.751 50.1824 60.8937C50.3813 60.598 50.548 60.2862 50.7201 59.9744C50.7836 59.884 50.8734 59.8154 50.9773 59.7779C51.0812 59.7404 51.1941 59.7358 51.3008 59.7647C51.3419 59.7908 51.3761 59.8264 51.4004 59.8685C51.4248 59.9106 51.4385 59.958 51.4405 60.0067C51.4249 60.1791 51.3716 60.3461 51.2846 60.4959C50.7469 61.3506 50.2092 62.2431 49.5748 63.0387C49.1317 63.606 48.5229 64.0211 47.8329 64.2264C47.1429 64.4316 46.4061 64.4167 45.725 64.1838C44.9232 64.021 44.1555 63.7209 43.4559 63.2967C42.6867 62.7925 42.1062 62.0476 41.8052 61.1786C41.7784 61.1033 41.7461 61.0281 41.687 60.8883C41.5579 61.2324 41.4504 61.5119 41.3482 61.7915C40.9473 62.8834 40.4431 63.9347 39.8427 64.931L39.762 65.0654C39.4233 65.5385 39.1222 66.103 38.434 66.0546C38.043 66.0616 37.6571 65.966 37.3146 65.7774C36.9721 65.5887 36.6851 65.3136 36.4822 64.9794C36.1396 64.3458 35.9 63.6616 35.7724 62.9527C35.518 61.7468 35.3598 60.5226 35.2993 59.2916C35.2993 59.168 35.2993 59.039 35.2455 58.8293L35.0734 59.0766C34.5357 59.7594 34.0303 60.4475 33.498 61.1195C33.31 61.3651 33.0489 61.5448 32.7523 61.6327C32.4557 61.7206 32.1389 61.7122 31.8473 61.6087C30.5891 61.313 30.0891 60.3991 29.8095 59.2863C29.6912 58.8239 29.6374 58.3078 29.5729 57.7649ZM15.2598 55.5231C15.1952 55.5231 15.1791 55.4855 15.163 55.4908C14.7866 55.5392 14.4048 55.5768 14.0285 55.636C11.7969 55.9579 9.61353 56.5537 7.52785 57.4101C7.45093 57.4333 7.38272 57.479 7.33194 57.5412C7.28117 57.6035 7.25015 57.6795 7.24288 57.7595C7.18432 58.1893 7.09812 58.6149 6.98479 59.0336C6.95277 59.2493 6.83743 59.444 6.66351 59.5756C6.4896 59.7073 6.27098 59.7655 6.05459 59.7379C5.47389 59.625 4.9147 59.4099 4.33938 59.2433C4.2596 59.2136 4.17182 59.2136 4.09204 59.2433C2.4306 60.3722 1.2692 61.8237 1.08101 63.9042C0.978101 64.6128 1.05627 65.3359 1.30824 66.0061C1.5602 66.6764 1.97776 67.2719 2.522 67.7373C3.16368 68.318 3.98256 68.6652 4.84612 68.7228C5.70969 68.7803 6.56742 68.5449 7.28051 68.0545C8.45271 67.1729 9.4874 66.1221 10.3507 64.9364C12.024 62.6463 13.404 60.1558 14.4586 57.5229C14.7274 56.851 14.9748 56.1897 15.2329 55.5231H15.2598ZM7.3988 56.8617L7.6784 56.7649C8.2591 56.5606 8.83442 56.3456 9.4205 56.1574C11.2605 55.5845 13.1455 55.1672 15.0554 54.9102C15.1937 54.9077 15.3269 54.8577 15.4326 54.7687C15.5384 54.6796 15.6102 54.5568 15.6361 54.421C16.3196 52.3808 16.7758 50.2714 16.9965 48.1311C17.1097 47.0862 17.0553 46.03 16.8352 45.0023C16.608 43.8983 16.0446 42.8917 15.2221 42.1208C15.117 41.9926 14.9751 41.8996 14.8155 41.8544C14.6559 41.8093 14.4863 41.814 14.3296 41.8681C14.1414 41.9326 13.9424 41.9702 13.765 42.0455C12.7338 42.528 11.8448 43.2688 11.1841 44.1959C9.97059 45.7798 9.03763 47.5599 8.42578 49.459C8.00335 50.5809 7.74441 51.7578 7.65689 52.9534C7.61388 53.9802 7.52247 55.0124 7.45257 56.0392C7.43106 56.2918 7.3988 56.5553 7.37192 56.8617H7.3988ZM26.121 59.7002L26.2339 59.7755C26.3683 59.6088 26.492 59.4314 26.6425 59.2755C27.7577 58.0383 28.7786 56.7193 29.6966 55.3295C29.8848 55.0769 30.0353 54.8565 29.7826 54.55C29.7082 54.4235 29.6555 54.2854 29.6267 54.1415C29.4623 53.6621 29.1705 53.2365 28.7825 52.9104C28.7501 52.8778 28.7115 52.8521 28.6691 52.8345C28.6266 52.8169 28.5811 52.8078 28.5352 52.8078C28.4892 52.8078 28.4437 52.8169 28.4013 52.8345C28.3589 52.8521 28.3203 52.8778 28.2879 52.9104C28.0537 53.1145 27.8444 53.3455 27.6641 53.5985C26.9053 54.7851 26.3814 56.1065 26.121 57.4907C25.9683 58.2184 25.9592 58.969 26.0941 59.7002H26.121ZM45.6336 56.7488C45.9 56.8674 46.1892 56.9265 46.4808 56.9219C46.7725 56.9173 47.0596 56.8492 47.3222 56.7223C47.5848 56.5954 47.8166 56.4127 48.0013 56.187C48.1861 55.9613 48.3193 55.698 48.3919 55.4156C48.4425 55.199 48.4247 54.972 48.3409 54.766C48.2571 54.5599 48.1115 54.3849 47.9241 54.2651C47.6122 54.0339 47.3273 54.1952 47.0907 54.3672C46.2411 54.9586 45.9347 55.8564 45.6067 56.7488H45.6336Z" fill="white"/>
<path d="M41.138 23.1436C41.3154 22.9178 41.4982 22.7082 41.6757 22.4824C42.5634 21.1233 43.2565 19.6467 43.735 18.0956C43.8694 17.6978 43.9769 17.2999 44.1114 16.9021C44.1399 16.8304 44.1426 16.7509 44.1191 16.6774C44.0956 16.6039 44.0472 16.5408 43.9823 16.4989C42.8142 15.521 42.0015 14.185 41.6703 12.6981C41.4986 11.9391 41.5624 11.1459 41.8531 10.4241C41.9741 10.1383 42.1547 9.8817 42.3828 9.67126C42.6109 9.46083 42.8812 9.30144 43.1758 9.20373C43.6579 8.96363 44.186 8.8298 44.7243 8.81128C45.2136 8.83816 45.504 9.02632 45.5362 9.51016C45.6097 10.3808 45.6294 11.2552 45.5954 12.1283C45.5416 13.0798 45.3642 14.0206 45.2513 14.9668C45.2308 15.0685 45.244 15.1742 45.2889 15.2678C45.7656 16.1112 46.4674 16.8054 47.316 17.2731H47.4181C47.4827 17.1225 47.5418 16.972 47.6063 16.8269C48.0676 15.6183 48.8526 14.5601 49.8753 13.7679C50.6201 13.1826 51.5471 12.8781 52.4939 12.9078C52.7551 12.9307 53.0082 13.0096 53.2361 13.1393C53.464 13.2689 53.6612 13.4462 53.8144 13.659C53.9675 13.8718 54.0729 14.1151 54.1234 14.3723C54.1739 14.6296 54.1683 14.8947 54.1069 15.1496C53.9718 15.8059 53.6727 16.4174 53.2374 16.9269C52.802 17.4364 52.2447 17.8274 51.6174 18.0633C51.2024 18.2141 50.7764 18.3327 50.3431 18.4181C50.2141 18.4504 50.1173 18.4773 50.1012 18.6332C49.9506 20.289 50.1012 21.8588 51.1013 23.2888C51.4073 23.7707 51.8864 24.117 52.4401 24.2565C52.583 24.2968 52.7328 24.3072 52.8799 24.2868C53.0271 24.2665 53.1684 24.2159 53.295 24.1382C53.667 23.9279 53.9771 23.6234 54.1941 23.2554C54.4112 22.8874 54.5276 22.4688 54.5317 22.0416C54.5317 21.4717 54.5317 20.8965 54.4726 20.3266C54.4444 20.1426 54.3957 19.9622 54.3274 19.789C54.6446 19.5148 54.9995 19.5686 55.1231 19.9772C55.2392 20.3579 55.3078 20.7516 55.3275 21.1491C55.384 21.6583 55.384 22.1721 55.3275 22.6813C55.2656 23.079 55.1239 23.4602 54.9109 23.8017C54.6978 24.1433 54.4178 24.4382 54.0878 24.6688C53.7578 24.8993 53.3845 25.0607 52.9904 25.1432C52.5964 25.2257 52.1897 25.2276 51.7949 25.1489C50.4836 24.9757 49.2682 24.3681 48.3429 23.4232C47.8651 22.8872 47.4995 22.2609 47.2677 21.5814C47.0359 20.9018 46.9426 20.1827 46.9934 19.4665C46.9934 19.0901 47.0901 18.7084 47.1224 18.3321C47.1233 18.288 47.114 18.2442 47.0954 18.2041C47.0767 18.1641 47.0492 18.1288 47.0149 18.101C46.2729 17.7838 45.5309 17.4827 44.7566 17.1655C44.7566 17.2032 44.7136 17.2892 44.6921 17.3752C44.2022 19.2759 43.5082 21.118 42.622 22.8695C42.4644 23.1589 42.2847 23.4357 42.0843 23.6974C41.9213 23.9418 41.686 24.1292 41.4112 24.2334C41.1364 24.3375 40.836 24.3531 40.5519 24.278C40.1105 24.2246 39.6859 24.0764 39.3072 23.8435C38.9285 23.6106 38.6048 23.2984 38.3581 22.9286C38.1538 22.5899 37.9925 22.2243 37.8205 21.8534C37.7721 21.7566 37.7344 21.6491 37.6645 21.4824C37.6108 21.6168 37.5731 21.6975 37.5409 21.7835C37.0032 23.2565 36.53 24.7349 35.9762 26.1972C35.7266 26.8268 35.415 27.4301 35.046 27.9981C34.5083 28.8475 33.9169 28.9873 32.9437 28.7454C32.4236 28.6174 31.9426 28.3644 31.5425 28.0084C31.1424 27.6524 30.8353 27.2041 30.6477 26.7025C30.1039 25.4791 29.773 24.1719 29.6692 22.8372C29.5939 21.805 29.6154 20.7621 29.5939 19.7191C29.6077 19.5969 29.6004 19.4733 29.5724 19.3536C29.524 19.4503 29.481 19.5471 29.4272 19.6385C28.9272 20.4718 28.4432 21.3104 27.9163 22.1276C27.686 22.519 27.3179 22.8105 26.8839 22.9447C26.5104 23.0339 26.1194 23.0171 25.7548 22.8963C25.443 22.8103 25.1418 22.7135 24.8354 22.6168C23.9159 22.3319 23.5503 21.5953 23.3137 20.7513C22.4265 17.5849 24.5988 13.6066 28.126 12.8271C28.5437 12.6922 28.9943 12.6992 29.4076 12.847C29.821 12.9948 30.1738 13.2751 30.4112 13.6443C30.4542 13.7088 30.5079 13.7626 30.5187 13.7787C30.7445 13.5529 30.9166 13.268 31.1693 13.1443C31.6977 12.835 32.29 12.6511 32.9006 12.6067C33.0494 12.5893 33.2001 12.6064 33.3412 12.6568C33.4822 12.7071 33.6097 12.7894 33.7138 12.897C33.8178 13.0047 33.8956 13.135 33.9411 13.2776C33.9866 13.4203 33.9985 13.5715 33.976 13.7195C33.9222 14.5582 33.804 15.3915 33.6964 16.2247C33.3899 18.5203 32.9705 20.8051 32.8899 23.1275C32.8262 24.4476 32.9769 25.7693 33.3362 27.0412C33.4455 27.3417 33.5711 27.6361 33.7125 27.9229C33.9109 27.7245 34.0909 27.5086 34.2502 27.2778C34.7395 26.3746 35.2611 25.4768 35.6697 24.5306C36.2074 23.2189 36.7128 21.8426 37.2129 20.5309C37.2606 20.3549 37.2606 20.1693 37.2129 19.9933C36.929 18.5077 36.8945 16.9852 37.1107 15.4882C37.2135 14.7314 37.4066 13.9896 37.686 13.2787C37.8291 12.9456 38.0706 12.6641 38.3781 12.472C38.6856 12.2798 39.0444 12.1861 39.4066 12.2035C39.4833 12.1927 39.5614 12.1985 39.6356 12.2206C39.7098 12.2428 39.7783 12.2806 39.8365 12.3317C39.8947 12.3827 39.9412 12.4457 39.9728 12.5164C40.0044 12.5871 40.0204 12.6637 40.0196 12.7411C40.0411 13.0256 40.0411 13.3114 40.0196 13.5959C39.9021 15.5472 39.9651 17.5052 40.2078 19.445C40.3745 20.5201 40.6218 21.5523 40.8422 22.606C40.8815 22.7467 40.9337 22.8835 40.9982 23.0146C41.036 23.0662 41.0835 23.1101 41.138 23.1436ZM26.6796 21.1115L26.7549 21.1545C27.055 20.8469 27.3368 20.522 27.5991 20.1815C28.3303 19.1063 29.0347 18.0311 29.7498 16.9559C29.8629 16.7634 29.9462 16.555 29.9971 16.3376C30.0876 16.0205 30.1541 15.6971 30.1961 15.37C30.2281 15.2042 30.1994 15.0325 30.1154 14.8861C29.852 14.5259 29.5455 14.198 29.2498 13.8593C29.2203 13.8171 29.1818 13.7818 29.137 13.7562C29.0923 13.7306 29.0425 13.7151 28.9911 13.711C28.9397 13.7069 28.888 13.7142 28.8398 13.7324C28.7915 13.7506 28.7479 13.7793 28.7121 13.8163C28.4382 14.0112 28.1859 14.2347 27.9593 14.4829C27.171 15.5177 26.6618 16.7376 26.4807 18.0257C26.3232 19.0566 26.391 20.1094 26.6796 21.1115ZM50.241 17.816C50.9031 17.7627 51.5354 17.5178 52.0605 17.1111C52.5857 16.7044 52.981 16.1535 53.1982 15.5259C53.262 15.3366 53.2858 15.1362 53.2682 14.9373C53.2506 14.7383 53.192 14.5452 53.0961 14.37C52.7089 13.698 52.3648 13.655 51.8755 14.2518C51.3521 14.9228 50.9449 15.677 50.6711 16.4828C50.5098 16.9075 50.3915 17.3483 50.241 17.816ZM44.7028 10.123C44.0899 10.9724 44.2135 12.983 44.7351 13.9883C44.8856 12.6766 45.09 11.4348 44.7028 10.123Z" fill="white"/>
<path d="M15.3729 16.956L14.6524 17.4452C14.5345 17.5126 14.4011 17.5481 14.2653 17.5481C14.1295 17.5481 13.996 17.5126 13.8781 17.4452C13.7007 17.3753 13.8029 17.2732 13.8781 17.1925C14.1739 16.913 14.4588 16.6227 14.7653 16.3485C14.8091 16.3207 14.8462 16.2836 14.8738 16.2397C14.9015 16.1959 14.919 16.1465 14.9252 16.095C14.9314 16.0435 14.926 15.9913 14.9095 15.9422C14.893 15.8931 14.8658 15.8482 14.8298 15.8109C13.9695 14.4508 13.1146 13.0799 12.2543 11.7144C11.5236 10.6659 10.9275 9.5299 10.48 8.33291C10.3673 7.98309 10.2899 7.62291 10.2488 7.25771C10.1494 6.78222 10.2218 6.28689 10.4531 5.85972C10.6844 5.43255 11.0597 5.1012 11.5123 4.92454C12.3776 4.4444 13.3644 4.22764 14.3513 4.30093C15.1271 4.37915 15.8515 4.72511 16.3999 5.27936C17.5649 6.43421 18.2391 7.99416 18.2818 9.6339C18.337 10.8538 18.1355 12.0718 17.6903 13.2089C17.6518 13.2958 17.637 13.3913 17.6474 13.4857C17.6577 13.5801 17.693 13.6701 17.7495 13.7465C18.725 15.1647 19.4775 16.7239 19.9809 18.3699C20.7928 21.3051 20.5723 24.1329 18.9431 26.7671C18.5389 27.464 17.9966 28.0709 17.3493 28.5507C16.7021 29.0305 15.9637 29.373 15.1793 29.5573C13.9593 29.8063 12.6962 29.7434 11.5069 29.3745C8.7755 28.6433 7.29149 26.7564 6.55486 24.1544C6.27643 23.1915 6.18876 22.1834 6.29678 21.1869C6.37437 19.8328 6.88947 18.5405 7.76466 17.5043C8.40796 16.8002 9.09009 16.1325 9.80786 15.5045C10.1335 15.2582 10.4966 15.0658 10.8832 14.9346C11.0235 14.9023 11.1704 14.9155 11.3026 14.9722C11.3359 14.9869 11.3648 15.01 11.3865 15.0392C11.4082 15.0684 11.4219 15.1028 11.4263 15.1389C11.3994 15.2034 11.3026 15.2894 11.2435 15.284C11.0783 15.2776 10.9137 15.3074 10.7613 15.3715C10.609 15.4356 10.4725 15.5324 10.3617 15.655C9.52671 16.3239 8.77728 17.0931 8.13028 17.9452C7.45754 18.8453 7.11915 19.9516 7.1732 21.074C7.15303 22.4383 7.50155 23.7827 8.18197 24.9655C8.8624 26.1482 9.84951 27.1254 11.0392 27.7939C11.7642 28.2284 12.5976 28.4484 13.4426 28.4283C13.8366 28.4426 14.2212 28.3061 14.518 28.0466C15.2913 27.3387 15.8502 26.4278 16.131 25.4178C16.8996 22.8913 16.7608 20.1758 15.7385 17.7409C15.6417 17.4989 15.5342 17.257 15.432 17.0205C15.4267 17.0097 15.4052 16.9936 15.3729 16.956ZM16.8784 12.3649C16.8784 12.3649 16.9214 12.338 16.9268 12.3273C17.3187 11.1098 17.3689 9.80812 17.072 8.56408C16.9081 7.94549 16.6194 7.36695 16.2236 6.86403C15.8279 6.3611 15.3334 5.9444 14.7707 5.63955C14.6088 5.54272 14.4212 5.4977 14.233 5.51052C13.6953 5.55891 13.5071 5.88147 13.5878 6.45669C13.6849 7.19158 13.9378 7.89724 14.3298 8.52644C15.1256 9.80055 15.9697 11.037 16.7924 12.2896C16.8164 12.3196 16.8456 12.345 16.8784 12.3649Z" fill="white"/>
<path d="M33.8097 39.0403C33.186 39.0726 32.5892 39.0941 31.9977 39.1371C31.9439 39.1371 31.8633 39.2876 31.8579 39.379C31.7826 40.4058 31.7181 41.438 31.6428 42.4648C31.6324 42.6122 31.5998 42.7572 31.546 42.8949C31.493 43.082 31.3706 43.2418 31.2037 43.3417C31.0368 43.4416 30.8381 43.4741 30.6481 43.4325C30.2251 43.3429 29.8069 43.2316 29.3953 43.0992C29.284 43.0618 29.188 42.989 29.122 42.8919C29.056 42.7948 29.0236 42.6788 29.0297 42.5616C28.9813 42.2014 28.9383 41.8358 28.9006 41.4864C28.709 39.3107 28.682 37.1236 28.82 34.9438C28.8522 33.9654 28.8953 32.987 28.9652 32.0085C29.0107 31.5503 29.0789 31.0946 29.1695 30.643C29.1949 30.4834 29.2665 30.3347 29.3754 30.2153C29.4843 30.0959 29.6258 30.011 29.7824 29.971C30.0083 29.9065 30.2233 29.8151 30.4545 29.7614C31.1213 29.6055 31.5299 29.8689 31.5299 30.5516C31.5944 31.4387 31.6267 32.3365 31.659 33.2396C31.7127 34.8954 31.7665 36.5512 31.8095 38.2124C31.8095 38.4382 31.8687 38.5081 32.1052 38.4866C32.5623 38.4436 33.0247 38.4328 33.4817 38.4328C33.7237 38.4328 33.8151 38.3629 33.8205 38.1049C33.8205 36.5889 33.8742 35.0675 33.9172 33.5514C33.9495 32.5891 33.9979 31.6268 34.0517 30.6645C34.088 30.5503 34.1476 30.4449 34.2268 30.3549C34.3059 30.265 34.4029 30.1924 34.5116 30.1419C34.6203 30.0914 34.7382 30.0639 34.8581 30.0614C34.9779 30.0588 35.0969 30.0811 35.2077 30.1269C35.286 30.1917 35.3408 30.2805 35.3636 30.3796C35.4003 30.5328 35.4184 30.6898 35.4174 30.8473C35.5088 35.3739 35.5948 39.9058 35.5142 44.4378C35.5142 44.8464 35.2991 45.0291 34.8958 44.9754C34.713 44.9431 34.5302 44.8786 34.3581 44.8356C34.2713 44.8212 34.1927 44.7756 34.1372 44.7072C34.0818 44.6389 34.0532 44.5526 34.057 44.4647C34.014 43.9271 33.9602 43.3572 33.9387 42.8035C33.8903 41.6584 33.8635 40.5133 33.8205 39.3682C33.8312 39.2446 33.8205 39.1586 33.8097 39.0403Z" fill="white"/>
<path d="M39.5953 28.1272C39.8372 31.6377 39.7996 35.1159 39.7028 38.6372H39.9985L42.9773 38.8468C43.0469 38.8529 43.1155 38.8673 43.1816 38.8898C43.3483 38.949 43.5311 39.0081 43.5204 39.2285C43.521 39.3258 43.489 39.4204 43.4296 39.4974C43.3701 39.5744 43.2866 39.6292 43.1924 39.6532C43.0596 39.6908 42.9217 39.7071 42.7838 39.7016C41.8105 39.6479 40.8427 39.5833 39.8749 39.5242H39.7082C39.6652 40.5295 39.6275 41.5295 39.5899 42.5455C39.6481 42.561 39.7074 42.5718 39.7673 42.5778C41.0094 42.5778 42.2461 42.5778 43.4881 42.5778C43.6656 42.5778 43.8484 42.524 44.0258 42.5133C44.2032 42.5025 44.3968 42.5133 44.4344 42.7552C44.4556 42.8506 44.4389 42.9505 44.3877 43.0338C44.3365 43.1171 44.2549 43.1772 44.1602 43.2014C43.8879 43.2876 43.6064 43.3417 43.3214 43.3627C42.0417 43.4433 40.7567 43.5132 39.477 43.5669C38.9198 43.558 38.3705 43.4335 37.8639 43.2014C37.3746 43.0078 37.3263 42.5455 37.3263 42.1262C37.2725 41.3198 37.2564 40.5134 37.251 39.707C37.251 37.9706 37.251 36.2341 37.251 34.4977C37.2779 32.9978 37.3693 31.4979 37.4338 29.998C37.4338 29.5572 37.4822 29.1163 37.4983 28.6701C37.5306 27.7455 37.8747 27.525 38.7242 27.4498C40.2297 27.3261 41.7353 27.2993 43.2462 27.2294H43.4021C43.5903 27.2294 43.8 27.2294 43.8269 27.4767C43.8537 27.724 43.6709 27.8422 43.4559 27.8691C43.0956 27.9121 42.73 27.939 42.3805 27.9605L39.8587 28.0895L39.5953 28.1272Z" fill="white"/>
<path d="M23.2608 29.955L21.9543 30.1056C21.3959 30.2092 20.8203 30.1685 20.2821 29.9873C20.1757 29.9291 20.0764 29.8588 19.9863 29.7776C20.0831 29.697 20.1638 29.5734 20.2767 29.5411C20.6584 29.4336 21.0456 29.3529 21.4381 29.2777C22.4328 29.0841 23.4275 28.8852 24.4276 28.7401C25.2879 28.5895 26.1536 28.4659 27.0246 28.3423C27.2027 28.3132 27.3843 28.3132 27.5623 28.3423C27.7666 28.3799 27.9763 28.4498 28.0032 28.7132C27.9981 28.8303 27.9549 28.9425 27.8802 29.0327C27.8054 29.123 27.7033 29.1863 27.5892 29.2132C27.1859 29.3099 26.7773 29.4067 26.3686 29.4873C25.96 29.568 25.5998 29.611 25.218 29.6916C25.1777 29.7102 25.1428 29.7387 25.1165 29.7744C25.0902 29.8102 25.0733 29.8519 25.0674 29.8959C25.0674 31.5947 25.1373 33.2989 25.1158 34.9977C25.0836 37.5405 24.9922 40.078 24.9276 42.6208C24.9276 43.0402 24.8954 43.4541 24.8685 43.8681C24.8416 44.282 24.6373 44.4057 24.2663 44.3734C23.9999 44.3391 23.7394 44.2686 23.492 44.1637C23.4349 44.1243 23.3867 44.0733 23.3506 44.014C23.3144 43.9548 23.2912 43.8885 23.2823 43.8197C23.2447 43.5025 23.2393 43.1799 23.2286 42.8628C23.121 39.7823 22.9651 36.6965 23.0726 33.6161C23.1103 32.4602 23.1963 31.3098 23.2608 30.1593V29.955Z" fill="white"/>
<path d="M61.3603 25.9445L61.6399 25.8531C61.9948 25.7509 62.3497 25.6326 62.7153 25.5574C62.8865 25.5062 63.0682 25.5003 63.2424 25.5403C63.4166 25.5804 63.5774 25.665 63.7091 25.7858C63.8408 25.9066 63.9389 26.0596 63.9937 26.2297C64.0485 26.3998 64.0582 26.5812 64.0219 26.7562C63.9574 27.2506 63.7542 27.7165 63.4358 28.1002C62.0621 29.9403 60.0972 31.2519 57.8707 31.815C57.08 32.0369 56.2752 32.2058 55.4619 32.3204C55.0805 32.3303 54.7003 32.2739 54.3382 32.1537C54.1607 32.1161 54.1661 31.9548 54.2306 31.815C54.9888 30.084 55.349 28.2239 55.9512 26.439C56.2201 25.6273 56.4889 24.8263 56.7685 24.0037C56.9125 23.6104 57.1344 23.2501 57.4208 22.9444C57.7071 22.6386 58.0522 22.3937 58.4353 22.2243C58.7946 22.0221 59.2177 21.9651 59.6177 22.0651C60.0177 22.1651 60.3642 22.4144 60.5861 22.7619C61.0794 23.5053 61.3482 24.375 61.3603 25.2671C61.3711 25.4821 61.3603 25.6918 61.3603 25.9445ZM59.102 22.8586L59.0106 22.9285C58.6814 23.3143 58.4541 23.7764 58.3493 24.2725C58.0966 25.251 57.8815 26.2455 57.618 27.2239C57.2876 28.7352 56.6786 30.1718 55.8222 31.4602C55.8222 31.4602 55.8222 31.5086 55.8222 31.5516C56.2308 31.5516 56.6233 31.2559 57.0373 31.4925C57.0373 31.4925 57.0696 31.4925 57.0857 31.4925C58.6949 31.1295 60.1791 30.3468 61.3872 29.2238C61.9201 28.7505 62.3596 28.1816 62.683 27.5465C62.7502 27.4092 62.7882 27.2596 62.7946 27.1069C62.8011 26.9543 62.7759 26.8019 62.7207 26.6595C62.6669 26.5143 62.5809 26.4552 62.4249 26.5358C62.0534 26.6875 61.6939 26.8672 61.3496 27.0734C61.1156 27.231 60.8503 27.3361 60.5719 27.3815C60.2934 27.427 60.0085 27.4117 59.7365 27.3368C59.4623 27.2723 59.4247 27.2132 59.5214 26.9444C59.8795 26.0059 59.9488 24.9819 59.7204 24.0037C59.6622 23.559 59.4421 23.1513 59.102 22.8586Z" fill="white"/>
<path d="M57.8718 55.179C58.2378 55.0065 58.6129 54.854 58.9955 54.7221C59.3997 54.5919 59.819 54.5142 60.243 54.4909C60.4583 54.4775 60.674 54.5101 60.8757 54.5864C61.0775 54.6627 61.2607 54.7811 61.4132 54.9336C61.5658 55.0861 61.6842 55.2693 61.7605 55.471C61.8368 55.6728 61.8694 55.8884 61.856 56.1037C61.8636 57.0696 61.4886 57.9992 60.8129 58.6896C59.6126 59.9973 58.0462 60.9133 56.3179 61.3184C55.7156 61.4743 55.0973 61.5496 54.479 61.6517C54.0534 61.6885 53.6258 61.6086 53.2423 61.4206C53.1507 61.3876 53.0742 61.3226 53.0267 61.2377C52.9793 61.1527 52.9642 61.0534 52.9842 60.9582C53.0541 60.3346 53.1133 59.7164 53.1993 59.0981C53.3522 57.7912 53.6313 56.5021 54.0327 55.2489C54.2396 54.5671 54.5734 53.9306 55.0167 53.3727C55.2164 53.1376 55.4631 52.9469 55.7409 52.8126C56.0186 52.6784 56.3214 52.6037 56.6297 52.5932C56.833 52.5686 57.0389 52.6069 57.2197 52.7031C57.4005 52.7992 57.5474 52.9485 57.6406 53.1308C57.9116 53.6802 57.9983 54.3023 57.8879 54.9049C57.8879 54.9801 57.8879 55.0608 57.8556 55.136C57.8553 55.1439 57.8566 55.1518 57.8594 55.1592C57.8621 55.1666 57.8663 55.1733 57.8718 55.179ZM54.5489 60.8776C54.6134 60.8776 54.6779 60.8776 54.7478 60.8776C56.2398 60.7057 57.6481 60.098 58.7966 59.1304C59.5957 58.5222 60.1857 57.6805 60.4849 56.722C60.5582 56.5083 60.5879 56.2821 60.5722 56.0568C60.5565 55.8315 60.4957 55.6116 60.3935 55.4102C60.3021 55.2382 60.1731 55.1575 59.9902 55.2436C59.5388 55.4347 59.1005 55.6556 58.6783 55.9048C58.1406 56.2489 57.6943 56.6736 57.1943 57.0553C57.0899 57.1438 56.9599 57.1966 56.8233 57.2058C56.5671 57.1666 56.315 57.1036 56.0705 57.0176C55.9038 56.9585 55.877 56.8295 56.0221 56.6951C56.1546 56.558 56.2965 56.4305 56.4469 56.3134C56.6202 56.1993 56.7657 56.0479 56.8727 55.8702C56.9797 55.6925 57.0455 55.4931 57.0652 55.2866C57.2072 54.7305 57.1715 54.144 56.9631 53.6093C56.7104 53.1147 56.5975 53.0717 56.3017 53.5555C56.0278 53.9761 55.821 54.4368 55.6888 54.921C55.4199 56.0392 55.2156 57.1735 55.0005 58.3025C54.8446 59.1358 54.6994 60.0067 54.5489 60.8776Z" fill="white"/>
<path d="M3.49477 29.439C3.45616 29.0816 3.45616 28.7211 3.49477 28.3638C3.57943 28.0009 3.75156 27.6642 3.99616 27.3831C4.24076 27.102 4.55041 26.885 4.89813 26.751C5.0495 26.6859 5.21842 26.6739 5.3775 26.7168C5.53657 26.7597 5.67649 26.8551 5.77455 26.9875C6.16621 27.4164 6.51219 27.8848 6.80691 28.3853C7.50052 29.7293 8.12961 31.1109 8.77483 32.4818C9.09821 33.2606 9.5153 33.9972 10.0169 34.6752C10.1674 34.8633 10.275 35.0784 10.0868 35.3095C9.97313 35.4013 9.83879 35.4639 9.69544 35.492C9.55208 35.5201 9.40403 35.5129 9.26413 35.4708C8.87699 35.2504 8.47911 35.0461 8.1081 34.7934C7.27476 34.2923 6.34308 33.9769 5.37667 33.8688C4.49486 33.7236 3.60768 33.6107 2.74201 33.401C2.24061 33.2722 1.76189 33.0673 1.32252 32.7936C1.14808 32.6971 0.996779 32.5637 0.879175 32.4027C0.761572 32.2417 0.680493 32.0571 0.64159 31.8616C0.602687 31.6661 0.606896 31.4644 0.653924 31.2707C0.700951 31.077 0.789666 30.8959 0.913884 30.7399C1.15368 30.3601 1.48298 30.0448 1.87294 29.8217C2.26289 29.5987 2.70161 29.4746 3.15065 29.4605L3.49477 29.439ZM8.12424 33.2882C8.08122 33.1645 8.05971 33.0731 8.02745 32.9925C7.89841 32.6699 7.76399 32.3474 7.63494 32.0302C7.18656 30.8066 6.56553 29.6535 5.79068 28.6057C5.63476 28.4175 5.45732 28.2509 5.28526 28.0681C5.25176 28.1345 5.24227 28.2105 5.25838 28.2831C5.35516 28.7239 5.4842 29.1594 5.54335 29.6002C5.56888 29.6922 5.57405 29.7885 5.5585 29.8827C5.54294 29.9768 5.50703 30.0664 5.45328 30.1452C5.39953 30.224 5.32923 30.2902 5.24727 30.3391C5.16532 30.3879 5.07369 30.4183 4.97878 30.4281C4.72099 30.5379 4.43577 30.566 4.1615 30.5088C3.68765 30.2912 3.16326 30.2075 2.64523 30.2669C2.53423 30.2766 2.42678 30.3109 2.33065 30.3673C2.23452 30.4236 2.1521 30.5006 2.08934 30.5927C2.02658 30.6848 1.98505 30.7896 1.96774 30.8997C1.95043 31.0097 1.95778 31.1223 1.98925 31.2292C2.03649 31.3838 2.11672 31.5264 2.2244 31.647C2.33208 31.7677 2.46465 31.8636 2.61297 31.928C3.30865 32.2753 4.06411 32.4869 4.83898 32.5516C5.91435 32.686 7.065 32.6968 8.12424 33.2882Z" fill="white"/>
<path d="M35.9761 72.5757C35.9761 73.2961 35.9761 74.0164 35.9761 74.7261C35.9868 74.8459 35.9868 74.9664 35.9761 75.0862C35.8793 75.7314 35.5622 75.9625 34.9011 75.8658C34.6969 75.8335 34.4926 75.8013 34.2884 75.7798C34.0841 75.7582 33.9175 75.6292 33.9282 75.3873C34.0304 73.7745 34.1325 72.1617 34.24 70.5489C34.2371 70.4538 34.2675 70.3606 34.326 70.2855C34.4957 70.1117 34.699 69.9744 34.9236 69.882C35.1482 69.7895 35.3893 69.7439 35.6321 69.7479C35.9062 69.7479 36.003 69.9038 36.003 70.1834C36.003 70.9844 36.003 71.7962 36.003 72.5757H35.9761Z" fill="white"/>
<path d="M25.6695 75.4035L25.1318 75.3175C24.8522 75.2691 24.7662 75.1778 24.8522 74.9143C25.5727 72.7639 26.1696 70.6135 27.5407 68.7481C27.6739 68.5748 27.8436 68.4329 28.0378 68.3326C28.2321 68.2322 28.446 68.1759 28.6644 68.1675C29.0247 68.1675 29.1699 68.3771 29.0193 68.7051C29.0203 68.7194 29.0203 68.7338 29.0193 68.7481C27.9923 70.2587 27.5245 71.9737 26.9331 73.6886C26.7987 74.0649 26.675 74.4466 26.5191 74.8122C26.4657 74.9926 26.3525 75.1495 26.1981 75.2569C26.0437 75.3644 25.8573 75.4161 25.6695 75.4035Z" fill="white"/>
<path d="M27.1804 6.73082C26.9738 6.71178 26.769 6.67764 26.5674 6.62868C26.5169 6.61084 26.4704 6.58312 26.4307 6.54712C26.391 6.51112 26.3589 6.46757 26.3362 6.41901C25.6802 4.8564 25.0332 3.29378 24.3952 1.73116C24.25 1.37097 24.3091 1.24195 24.6586 1.06992C24.7931 1.00003 24.9221 0.93552 25.0565 0.876384C25.1511 0.814767 25.2589 0.776577 25.3712 0.764985C25.4834 0.753393 25.5969 0.768733 25.702 0.80973C25.8071 0.850728 25.901 0.916203 25.9757 1.00072C26.0505 1.08524 26.104 1.18637 26.1319 1.29571C26.4814 2.18812 26.8201 3.07516 27.1427 3.9837C27.3901 4.67182 27.6105 5.36532 27.8256 6.05882C27.96 6.47815 27.7127 6.74695 27.1804 6.73082Z" fill="white"/>
<path d="M16.6037 73.28C16.3994 73.2477 16.0661 73.2101 15.7811 73.1456C15.5606 73.0972 15.5338 72.9574 15.7112 72.7961C15.7779 72.7417 15.848 72.6914 15.9209 72.6456C17.4532 71.688 18.8932 70.5902 20.2224 69.3663C20.5277 69.0852 20.8134 68.7834 21.0773 68.4631C21.3672 68.1514 21.7404 67.9294 22.1527 67.8234C22.2515 67.7734 22.3643 67.7585 22.4727 67.7809C22.5811 67.8034 22.6787 67.8619 22.7495 67.947C22.8839 68.1405 22.7495 68.3502 22.6473 68.5276C22.1053 69.2925 21.4613 69.9798 20.7332 70.5705C19.7492 71.3661 18.7437 72.1349 17.7436 72.909C17.4189 73.1624 17.0154 73.2936 16.6037 73.28Z" fill="white"/>
<path d="M45.5259 74.7691C45.2721 74.7452 45.0204 74.7021 44.7732 74.64C44.6176 74.5902 44.4845 74.4875 44.3968 74.3497C43.644 73.1133 42.9074 71.866 42.16 70.6242C42.0525 70.4522 42.0847 70.3231 42.2514 70.2425C42.5491 70.085 42.8582 69.9502 43.1762 69.8393C43.2862 69.8078 43.4034 69.8121 43.5107 69.8518C43.6181 69.8914 43.71 69.9643 43.7731 70.0597C44.585 71.2801 45.3861 72.495 46.198 73.7261C46.2963 73.897 46.3377 74.0947 46.3163 74.2906C46.2787 74.6185 46.0044 74.7852 45.5259 74.7691Z" fill="white"/>
<path d="M32.2178 4.83842C32.3951 3.54818 32.5671 2.26332 32.7553 0.97309C32.8477 0.670426 33.0411 0.408655 33.3033 0.23154C33.5655 0.0544256 33.8806 -0.0272958 34.1958 3.87635e-05C34.4484 0.0591745 34.5613 0.19895 34.5236 0.50538C34.4699 0.924706 34.3893 1.34403 34.3194 1.76336C34.1259 2.91919 33.9324 4.06965 33.7443 5.22549C33.669 5.6932 33.4648 5.87598 32.9971 5.80609C32.1049 5.67169 32.2124 5.77921 32.2715 4.93518C32.2715 4.89218 32.2715 4.84917 32.2715 4.80616L32.2178 4.83842Z" fill="white"/>
<path d="M38.9553 6.89738L38.4176 6.80061C38.1165 6.74685 38.095 6.69847 38.2456 6.42967C38.7259 5.5946 39.2008 4.75774 39.6704 3.91909C39.9715 3.38149 40.278 2.84389 40.5684 2.33317C40.6872 2.12527 40.8489 1.94493 41.0426 1.80407C41.2363 1.66321 41.4577 1.56504 41.6921 1.51603C41.7826 1.48745 41.8785 1.48083 41.972 1.49672C42.0655 1.51262 42.1539 1.55056 42.2298 1.60742C42.2727 1.69052 42.2951 1.78269 42.2951 1.87622C42.2951 1.96974 42.2727 2.06191 42.2298 2.14501C41.4575 3.71209 40.5584 5.21341 39.5414 6.63395C39.3969 6.76988 39.2294 6.87909 39.0467 6.95651L38.9553 6.89738Z" fill="white"/>
<path d="M21.1583 5.94042C20.9528 5.95265 20.7473 5.91448 20.5599 5.82921C20.3725 5.74395 20.2087 5.61418 20.0829 5.4512C19.4915 4.63406 18.8731 3.83841 18.2817 3.02664C18.115 2.80085 18.158 2.68795 18.4 2.54818H18.4484C19.2603 2.13423 19.427 2.17724 19.9431 2.9245C20.4593 3.67176 21.0615 4.49428 21.5992 5.28992C21.6389 5.35642 21.6639 5.43072 21.6722 5.50774C21.6806 5.58475 21.6722 5.66266 21.6476 5.73613C21.5616 5.87053 21.3572 5.93504 21.2067 6.02643L21.1583 5.94042Z" fill="white"/>
</g>
<defs>
<clipPath id="clip0_2441:58">
<rect width="64" height="76" fill="white"/>
</clipPath>
</defs>
</svg>
