<svg width="700" height="1071" viewBox="0 0 700 1071" fill="none" xmlns="http://www.w3.org/2000/svg">
<path fill-rule="evenodd" clip-rule="evenodd" d="M502.201 463.992C522.67 543.753 585.722 618.637 561.928 697.464C538.418 775.347 449.069 806.818 383.986 855.618C324.918 899.907 272.9 957.34 199.976 968.856C124.397 980.791 47.0031 958.919 -18.3813 919.159C-83.3444 879.656 -129.96 818.027 -161.692 748.929C-194.104 678.351 -199.968 602.463 -199.483 524.802C-198.863 425.3 -230.357 305.305 -158.495 236.5C-86.8703 167.924 31.8462 219.951 130.395 208.962C231.89 197.645 342.651 113.454 426.878 171.227C512.055 229.652 476.524 363.94 502.201 463.992Z" fill="#F7ADAF" fill-opacity="0.1"/>
</svg>
