<svg width="46" height="46" viewBox="0 0 46 46" fill="none" xmlns="http://www.w3.org/2000/svg">
<path d="M44.0833 9.58333H38.3333V1.91667C38.3333 0.858667 37.4747 0 36.4167 0H5.75C2.57887 0 0 2.57887 0 5.75V40.25C0 43.4211 2.57887 46 5.75 46H40.25C43.4211 46 46 43.4211 46 40.25V11.5C46 10.442 45.1413 9.58333 44.0833 9.58333ZM5.75 42.1667C4.69296 42.1667 3.83333 41.307 3.83333 40.25V5.75C3.83333 4.69296 4.69296 3.83333 5.75 3.83333H34.5V11.5V40.25C34.5 40.9227 34.6227 41.5658 34.8354 42.1667H5.75ZM42.1667 40.25C42.1667 41.307 41.307 42.1667 40.25 42.1667C39.193 42.1667 38.3333 41.307 38.3333 40.25V13.4167H42.1667V40.25Z" fill="#9D9D9D"/>
<path d="M28.7503 9.58398H9.58366C8.52566 9.58398 7.66699 10.4427 7.66699 11.5007C7.66699 12.5587 8.52566 13.4173 9.58366 13.4173H28.7503C29.8083 13.4173 30.667 12.5587 30.667 11.5007C30.667 10.4427 29.8083 9.58398 28.7503 9.58398Z" fill="#9D9D9D"/>
<path d="M24.917 21.084H9.58366C8.52566 21.084 7.66699 21.9427 7.66699 23.0007C7.66699 24.0587 8.52566 24.9173 9.58366 24.9173H24.917C25.975 24.9173 26.8337 24.0587 26.8337 23.0007C26.8337 21.9427 25.975 21.084 24.917 21.084Z" fill="#9D9D9D"/>
<path d="M23.0003 26.834H9.58366C8.52566 26.834 7.66699 27.6927 7.66699 28.7507C7.66699 29.8087 8.52566 30.6673 9.58366 30.6673H23.0003C24.0583 30.6673 24.917 29.8087 24.917 28.7507C24.917 27.6927 24.0583 26.834 23.0003 26.834Z" fill="#9D9D9D"/>
<path d="M21.0837 32.584H9.58366C8.52566 32.584 7.66699 33.4427 7.66699 34.5007C7.66699 35.5587 8.52566 36.4173 9.58366 36.4173H21.0837C22.1417 36.4173 23.0003 35.5587 23.0003 34.5007C23.0003 33.4427 22.1417 32.584 21.0837 32.584Z" fill="#9D9D9D"/>
</svg>
