<svg width="47" height="46" viewBox="0 0 47 46" fill="none" xmlns="http://www.w3.org/2000/svg">
<path d="M45.441 23.5613L43.5243 21.6446L29.1599 7.2802C29.158 7.27828 29.1561 7.27637 29.1532 7.27349L24.3577 2.478L22.441 0.561342C21.6935 -0.187114 20.4784 -0.187114 19.7309 0.561342C18.9824 1.3098 18.9824 2.52304 19.7309 3.2715L20.5694 4.11004L3.48718 31.4407L3.27443 31.2279C2.52693 30.4795 1.31177 30.4795 0.564272 31.2279C-0.184184 31.9764 -0.184184 33.1896 0.564272 33.9381L2.48093 35.8547L10.1476 43.5214L12.0642 45.438C12.438 45.8128 12.9287 45.9996 13.4193 45.9996C13.91 45.9996 14.4007 45.8128 14.7744 45.438C15.5229 44.6896 15.5229 43.4763 14.7744 42.7279L14.5617 42.5151L16.8818 41.0652C17.9302 43.4045 20.2771 45.0413 23.0026 45.0413C26.7018 45.0413 29.7109 42.0321 29.7109 38.333C29.7109 36.7096 29.1283 35.2079 28.1383 34.0291L41.8923 25.4329L42.7308 26.2714C43.1046 26.6461 43.5952 26.833 44.0859 26.833C44.5766 26.833 45.0672 26.6461 45.441 26.2714C46.1894 25.523 46.1894 24.3097 45.441 23.5613ZM23.0026 41.208C21.6428 41.208 20.5014 40.2592 20.2033 38.9885L24.8177 36.1049C25.4732 36.6425 25.8776 37.4609 25.8776 38.333C25.8776 39.9181 24.5877 41.208 23.0026 41.208ZM23.0256 32.7038L17.2143 36.3339C17.2095 36.3368 17.2066 36.3406 17.2018 36.3435L11.7796 39.7322L6.26921 34.2217L23.3515 6.89112L25.3285 8.86815L16.6163 21.9359C16.0289 22.8167 16.2675 24.0069 17.1482 24.5934C17.474 24.8129 17.8439 24.9164 18.2091 24.9164C18.8281 24.9164 19.4367 24.6164 19.8056 24.0625L28.0923 11.6329L39.1102 22.6509L23.0256 32.7038Z" fill="white"/>
<path d="M35.5652 0.322127C34.6854 -0.265329 33.4952 -0.026705 32.9077 0.854001L30.9911 3.72899C30.4036 4.6097 30.6422 5.79899 31.5229 6.38644C31.8488 6.60494 32.2187 6.70844 32.5838 6.70844C33.2029 6.70844 33.8114 6.40849 34.1804 5.85457L36.0971 2.97958C36.6845 2.09887 36.4459 0.908626 35.5652 0.322127Z" fill="white"/>
<path d="M45.6809 10.4367C45.0935 9.55504 43.9032 9.31641 43.0235 9.90483L40.1485 11.8215C39.2678 12.4089 39.0301 13.5982 39.6166 14.4789C39.9856 15.0338 40.5932 15.3328 41.2132 15.3328C41.5783 15.3328 41.9482 15.2293 42.2741 15.0108L45.1491 13.0942C46.0298 12.5067 46.2674 11.3174 45.6809 10.4367Z" fill="white"/>
<path d="M44.4831 1.52033C43.7356 0.77187 42.5204 0.77187 41.7729 1.52033L36.9813 6.31198C36.2328 7.06044 36.2328 8.27368 36.9813 9.02214C37.355 9.39685 37.8457 9.58372 38.3363 9.58372C38.827 9.58372 39.3177 9.39685 39.6914 9.02214L44.4831 4.23049C45.2315 3.48203 45.2315 2.26878 44.4831 1.52033Z" fill="white"/>
</svg>
