<svg width="47" height="46" viewBox="0 0 47 46" fill="none" xmlns="http://www.w3.org/2000/svg">
<path d="M30.8566 28.75H30.0906C29.2449 28.75 28.5586 29.6087 28.5586 30.6667C28.5586 31.7247 29.2449 32.5833 30.0906 32.5833H30.8566C31.7023 32.5833 32.3886 31.7247 32.3886 30.6667C32.3886 29.6087 31.7023 28.75 30.8566 28.75Z" fill="white"/>
<path d="M35.5177 28.75H34.7517C33.9061 28.75 33.2197 29.6087 33.2197 30.6667C33.2197 31.7247 33.9061 32.5833 34.7517 32.5833H35.5177C36.3634 32.5833 37.0497 31.7247 37.0497 30.6667C37.0497 29.6087 36.3634 28.75 35.5177 28.75Z" fill="white"/>
<path d="M40.1779 28.75H39.4119C38.5662 28.75 37.8799 29.6087 37.8799 30.6667C37.8799 31.7247 38.5662 32.5833 39.4119 32.5833H40.1779C41.0235 32.5833 41.7099 31.7247 41.7099 30.6667C41.7099 29.6087 41.0235 28.75 40.1779 28.75Z" fill="white"/>
<path d="M44.5833 21.0833H40.7117C40.727 20.7642 40.75 20.446 40.75 20.125C40.75 11.7568 35.4763 4.17163 27.6227 1.24967C27.6074 1.24392 27.5921 1.24008 27.5767 1.23529C27.5729 1.23433 27.57 1.23146 27.5662 1.2305C27.5614 1.22858 27.5566 1.22858 27.5518 1.22763C25.3256 0.414958 22.9969 0 20.625 0C19.0246 0 17.4759 0.207958 15.9828 0.562542C15.8075 0.581708 15.6359 0.627708 15.4711 0.694792C6.86717 2.97946 0.5 10.8119 0.5 20.125C0.5 20.2103 0.510542 20.2946 0.5115 20.3799C0.514375 20.4298 0.5115 20.4805 0.518208 20.5285C0.612125 25.1668 2.29592 29.6412 5.30796 33.1631C5.30892 33.1641 5.31083 33.166 5.31179 33.167C5.31371 33.1689 5.31562 33.1708 5.31754 33.1737C9.14896 37.6711 14.7274 40.25 20.625 40.25H38.0389L43.2282 45.4384C43.5943 45.8055 44.085 46 44.5833 46C44.8296 46 45.0798 45.9521 45.3165 45.8543C46.0333 45.5572 46.5 44.8586 46.5 44.0833V23C46.5 21.942 45.6413 21.0833 44.5833 21.0833ZM25.6064 13.1608L28.1077 5.66375C33.4427 8.43908 36.9167 14.0195 36.9167 20.125C36.9167 20.4451 36.9071 20.7652 36.8889 21.0833H31.987C31.4216 19.9851 30.5782 19.0507 29.5135 18.3808L26.8963 16.7574C25.686 15.9984 25.156 14.5178 25.6064 13.1608ZM14.4073 5.07246L15.0216 7.52962C15.336 8.78504 14.8012 10.0759 13.6905 10.7429C12.1438 11.6715 11.0503 13.1464 10.6133 14.8963L10.1945 16.5734C9.84183 17.985 8.527 18.905 7.09142 18.7728C6.22125 18.6904 5.30317 18.606 4.41575 18.5275C5.00992 12.4382 8.97071 7.32646 14.4073 5.07246ZM18.7083 36.3036C15.5305 35.927 12.552 34.6112 10.115 32.545L11.3598 31.9968C13.0034 31.2666 14.8884 31.2532 16.5387 31.9595L18.2809 32.7022C18.418 32.7625 18.5665 32.8085 18.7083 32.8622V36.3036ZM18.7083 23V28.7184L18.0452 28.4357C15.4222 27.3115 12.4188 27.3326 9.81308 28.4903L8.30563 29.1544C7.99896 29.2895 7.67504 29.4314 7.35975 29.5694C5.83887 27.4409 4.87 24.9713 4.50679 22.3838C5.25046 22.4509 6.0085 22.5208 6.72917 22.5898C6.94863 22.61 7.16712 22.6205 7.38371 22.6205C10.4628 22.6205 13.151 20.5524 13.9128 17.503L14.3316 15.8259C14.5204 15.0698 14.9929 14.4315 15.6627 14.03C18.2292 12.49 19.4664 9.50379 18.74 6.601L18.1027 4.04992C18.9268 3.92054 19.7654 3.83333 20.625 3.83333C21.9446 3.83333 23.246 4.00296 24.5168 4.31442L21.9686 11.9504C20.9595 14.9912 22.1488 18.3032 24.8666 20.01L26.5973 21.0833H20.625C19.567 21.0833 18.7083 21.942 18.7083 23ZM42.6667 39.4555L40.1884 36.9782C39.829 36.6189 39.3412 36.4167 38.8333 36.4167H22.5417V31.4563C22.5417 31.4535 22.5417 31.4506 22.5417 31.4467V24.9167H30.6837C30.6846 24.9167 30.6856 24.9167 30.6865 24.9167C30.6875 24.9167 30.6894 24.9167 30.6904 24.9167H38.6033H42.6667V39.4555Z" fill="white"/>
</svg>
