<svg width="80" height="28" viewBox="0 0 80 28" fill="none" xmlns="http://www.w3.org/2000/svg">
<path fill-rule="evenodd" clip-rule="evenodd" d="M43.7282 5.85955L42.6368 5L40.112 5.76308L39.343 7.5117C38.6289 7.2855 37.8705 7.16375 37.0846 7.16375C35.2333 7.16375 33.535 7.83924 32.2089 8.96421C33.2311 10.011 33.9925 11.3349 34.3814 12.8197C35.0197 12.0098 35.9935 11.4923 37.0846 11.4923C39.0072 11.4923 40.5658 13.0994 40.5658 15.0819C40.5658 17.0643 39.0072 18.6715 37.0846 18.6715C35.1619 18.6715 33.6033 17.0643 33.6033 15.0819C33.6033 14.985 33.607 14.889 33.6144 14.794C33.5888 14.1068 33.4744 13.4434 33.283 12.816C32.3378 9.54707 29.4002 7.16374 25.9227 7.16374C25.1333 7.16374 24.3717 7.28654 23.655 7.51464L22.8874 5.76927L20.3626 5.00618L18.1797 6.72529L18.1857 9.47196L19.5354 10.6846C18.7193 11.9424 18.2434 13.4548 18.2434 15.0819C18.2434 19.4549 21.6815 23 25.9227 23C27.774 23 29.4723 22.3245 30.7984 21.1995C29.7762 20.1528 29.0148 18.8288 28.6258 17.344C27.9875 18.1539 27.0137 18.6714 25.9227 18.6714C24 18.6714 22.4414 17.0643 22.4414 15.0819C22.4414 13.0994 24 11.4923 25.9227 11.4923C27.8453 11.4923 29.404 13.0994 29.404 15.0819C29.404 15.1788 29.4003 15.2748 29.3929 15.3697C29.4185 16.057 29.5329 16.7204 29.7243 17.3478C30.6695 20.6167 33.6071 23 37.0846 23C41.3257 23 44.7639 19.4549 44.7639 15.0819C44.7639 13.4512 44.2858 11.9357 43.4664 10.6762L44.8137 9.46576L44.8197 6.71911L43.7282 5.85955ZM20.3626 5.00618L19.2712 5.86574L18.1797 6.72529L20.3626 5.00618Z" fill="#F7ADAF"/>
<path d="M15.5898 22H12.0742V14.6875H5.21875V22H1.70312V4.9375H5.21875V11.8516H12.0742V4.9375H15.5898V22Z" fill="#F54291"/>
<path d="M48.0469 22V11.8047H46.1602V9.32031H48.0469V8.24219C48.0469 6.82031 48.4531 5.71875 49.2656 4.9375C50.0859 4.14844 51.2305 3.75391 52.6992 3.75391C53.168 3.75391 53.7422 3.83203 54.4219 3.98828L54.3867 6.61328C54.1055 6.54297 53.7617 6.50781 53.3555 6.50781C52.082 6.50781 51.4453 7.10547 51.4453 8.30078V9.32031H53.9648V11.8047H51.4453V22H48.0469ZM61.2773 22.2344C59.418 22.2344 57.9023 21.6641 56.7305 20.5234C55.5664 19.3828 54.9844 17.8633 54.9844 15.9648V15.6367C54.9844 14.3633 55.2305 13.2266 55.7227 12.2266C56.2148 11.2188 56.9102 10.4453 57.8086 9.90625C58.7148 9.35938 59.7461 9.08594 60.9023 9.08594C62.6367 9.08594 64 9.63281 64.9922 10.7266C65.9922 11.8203 66.4922 13.3711 66.4922 15.3789V16.7617H58.418C58.5273 17.5898 58.8555 18.2539 59.4023 18.7539C59.957 19.2539 60.6562 19.5039 61.5 19.5039C62.8047 19.5039 63.8242 19.0312 64.5586 18.0859L66.2227 19.9492C65.7148 20.668 65.0273 21.2305 64.1602 21.6367C63.293 22.0352 62.332 22.2344 61.2773 22.2344ZM60.8906 11.8281C60.2188 11.8281 59.6719 12.0547 59.25 12.5078C58.8359 12.9609 58.5703 13.6094 58.4531 14.4531H63.1641V14.1836C63.1484 13.4336 62.9453 12.8555 62.5547 12.4492C62.1641 12.0352 61.6094 11.8281 60.8906 11.8281ZM72.9961 17.207L75.3398 9.32031H78.9727L73.875 23.9688L73.5938 24.6367C72.8359 26.293 71.5859 27.1211 69.8438 27.1211C69.3516 27.1211 68.8516 27.0469 68.3438 26.8984V24.332L68.8594 24.3438C69.5 24.3438 69.9766 24.2461 70.2891 24.0508C70.6094 23.8555 70.8594 23.5312 71.0391 23.0781L71.4375 22.0352L66.9961 9.32031H70.6406L72.9961 17.207Z" fill="#F54291"/>
</svg>
