<svg xmlns="http://www.w3.org/2000/svg" viewBox="0 0 18.321 15">
  <defs>
    <style>
      .cls-1 {
        fill: #fff;
      }
    </style>
  </defs>
  <g id="_003-twitter" data-name="003-twitter" transform="translate(0.002 -28.097)">
    <path id="XMLID_827_" class="cls-1" d="M17.9,29.828a6.945,6.945,0,0,1-.886.323,3.917,3.917,0,0,0,.8-1.4.3.3,0,0,0-.432-.344,6.973,6.973,0,0,1-2.061.815A3.935,3.935,0,0,0,8.636,32.03a4.012,4.012,0,0,0,.032.508,10.069,10.069,0,0,1-6.911-3.666.3.3,0,0,0-.484.038,3.939,3.939,0,0,0,.4,4.527,3.332,3.332,0,0,1-.526-.235.3.3,0,0,0-.439.252c0,.017,0,.035,0,.053a3.947,3.947,0,0,0,1.925,3.382c-.1-.01-.2-.024-.3-.043a.3.3,0,0,0-.337.38A3.932,3.932,0,0,0,4.88,39.861a6.958,6.958,0,0,1-3.719,1.062,7.115,7.115,0,0,1-.833-.049.3.3,0,0,0-.194.542A10.606,10.606,0,0,0,5.869,43.1a10.2,10.2,0,0,0,7.905-3.472,11.006,11.006,0,0,0,2.74-7.173c0-.108,0-.217,0-.326a7.646,7.646,0,0,0,1.76-1.864.3.3,0,0,0-.365-.434Z" transform="translate(0)"/>
  </g>
</svg>
